<svg width="144" height="100" viewBox="0 0 144 100" fill="none" xmlns="http://www.w3.org/2000/svg">
<path d="M79.7342 3.30622L80.049 12.1255L87.9145 14.5276L80.2435 17.5761L80.5582 26.3954L75.5025 19.4602L67.8315 22.5087L72.3779 15.174L67.3222 8.23881L75.1878 10.6409L79.7342 3.30622Z" fill="#C30202"/>
<path d="M128.675 13.4216L131.135 23.9141L141.904 24.8236L132.656 30.3988L135.116 40.8913L126.94 33.8445L117.691 39.4197L121.887 29.4893L113.71 22.4426L124.479 23.352L128.675 13.4216Z" fill="#C30202"/>
<path d="M132.915 58.583L135.13 66.3084L143.183 66.5961L136.498 71.0831L138.712 78.8085L132.366 73.8562L125.681 78.3431L128.444 70.7954L122.099 65.843L130.152 66.1307L132.915 58.583Z" fill="#C30202"/>
<path d="M6.98626 66.064L13.0483 69.4214L18.1241 64.7107L16.7948 71.4963L22.8568 74.8537L15.9732 75.6901L14.644 82.4757L11.719 76.207L4.83543 77.0434L9.91124 72.3327L6.98626 66.064Z" fill="#C30202"/>
<path d="M14.61 23.9771L23.1776 31.2219L32.736 25.3367L28.4727 35.6995L37.0403 42.9443L25.8378 42.1041L21.5746 52.4669L18.9143 41.5847L7.7119 40.7445L17.2702 34.8592L14.61 23.9771Z" fill="#C30202"/>
<path d="M121.902 70.6855C98.7147 69.0989 91.3646 75.5643 84.5492 95.2899" stroke="#C30202" stroke-width="5"/>
<path d="M112.969 32.5468C85.0863 51.123 77.924 65.44 74.585 95.3235" stroke="#C30202" stroke-width="5"/>
<path d="M71.8557 25.6449C55.1166 52.7931 55.0483 68.0203 65.3055 95.1871" stroke="#C30202" stroke-width="5"/>
<path d="M30.6745 49.42C30.9086 75.6765 38.3986 84.724 59.9559 94.5412" stroke="#C30202" stroke-width="5"/>
<path d="M19.9139 80.3707C24.9217 91.2776 29.7374 93.6585 40.5639 93.7453" stroke="#C30202" stroke-width="5"/>
<rect x="39.375" y="34.2104" width="56.8125" height="61.1301" fill="#E1B000"/>
<path d="M49.6783 72.2785C49.5449 72.2785 49.4316 72.2385 49.3383 72.1585C49.2583 72.0652 49.2183 71.9518 49.2183 71.8185V71.1785C49.2183 71.0585 49.2516 70.9252 49.3183 70.7785C49.3849 70.6318 49.5183 70.4718 49.7183 70.2985L53.9583 66.0585C54.6383 65.4852 55.1716 64.9985 55.5583 64.5985C55.9583 64.1852 56.2383 63.7918 56.3983 63.4185C56.5716 63.0452 56.6583 62.6585 56.6583 62.2585C56.6583 61.4985 56.4449 60.8985 56.0183 60.4585C55.5916 60.0052 54.9583 59.7785 54.1183 59.7785C53.5849 59.7785 53.1249 59.8918 52.7383 60.1185C52.3516 60.3318 52.0449 60.6318 51.8183 61.0185C51.6049 61.3918 51.4649 61.8185 51.3983 62.2985C51.3716 62.4718 51.2983 62.5918 51.1783 62.6585C51.0716 62.7252 50.9716 62.7585 50.8783 62.7585H49.8383C49.7183 62.7585 49.6183 62.7252 49.5383 62.6585C49.4583 62.5785 49.4183 62.4852 49.4183 62.3785C49.4316 61.8718 49.5383 61.3652 49.7383 60.8585C49.9383 60.3385 50.2316 59.8718 50.6183 59.4585C51.0183 59.0452 51.5049 58.7118 52.0783 58.4585C52.6649 58.1918 53.3449 58.0585 54.1183 58.0585C55.1716 58.0585 56.0316 58.2518 56.6983 58.6385C57.3783 59.0118 57.8783 59.5118 58.1983 60.1385C58.5183 60.7652 58.6783 61.4518 58.6783 62.1985C58.6783 62.7852 58.5783 63.3252 58.3783 63.8185C58.1783 64.2985 57.8849 64.7718 57.4983 65.2385C57.1249 65.6918 56.6583 66.1585 56.0983 66.6385L52.2583 70.5385H58.4983C58.6449 70.5385 58.7583 70.5785 58.8383 70.6585C58.9316 70.7385 58.9783 70.8518 58.9783 70.9985V71.8185C58.9783 71.9518 58.9316 72.0652 58.8383 72.1585C58.7583 72.2385 58.6449 72.2785 58.4983 72.2785H49.6783ZM66.3166 72.4785C65.3966 72.4785 64.6166 72.3385 63.9766 72.0585C63.3499 71.7652 62.8366 71.3652 62.4366 70.8585C62.0366 70.3518 61.7432 69.7718 61.5566 69.1185C61.3832 68.4652 61.2832 67.7718 61.2566 67.0385C61.2432 66.6785 61.2299 66.2985 61.2166 65.8985C61.2166 65.4985 61.2166 65.0985 61.2166 64.6985C61.2299 64.2852 61.2432 63.8918 61.2566 63.5185C61.2699 62.7852 61.3699 62.0918 61.5566 61.4385C61.7566 60.7718 62.0499 60.1918 62.4366 59.6985C62.8366 59.1918 63.3566 58.7985 63.9966 58.5185C64.6366 58.2252 65.4099 58.0785 66.3166 58.0785C67.2366 58.0785 68.0099 58.2252 68.6366 58.5185C69.2766 58.7985 69.7966 59.1918 70.1966 59.6985C70.5966 60.1918 70.8899 60.7718 71.0766 61.4385C71.2766 62.0918 71.3832 62.7852 71.3966 63.5185C71.4099 63.8918 71.4166 64.2852 71.4166 64.6985C71.4299 65.0985 71.4299 65.4985 71.4166 65.8985C71.4166 66.2985 71.4099 66.6785 71.3966 67.0385C71.3832 67.7718 71.2766 68.4652 71.0766 69.1185C70.8899 69.7718 70.5966 70.3518 70.1966 70.8585C69.8099 71.3652 69.2966 71.7652 68.6566 72.0585C68.0299 72.3385 67.2499 72.4785 66.3166 72.4785ZM66.3166 70.7785C67.3566 70.7785 68.1232 70.4385 68.6166 69.7585C69.1232 69.0652 69.3832 68.1252 69.3966 66.9385C69.4232 66.5518 69.4366 66.1785 69.4366 65.8185C69.4366 65.4452 69.4366 65.0785 69.4366 64.7185C69.4366 64.3452 69.4232 63.9785 69.3966 63.6185C69.3832 62.4585 69.1232 61.5318 68.6166 60.8385C68.1232 60.1318 67.3566 59.7785 66.3166 59.7785C65.2899 59.7785 64.5232 60.1318 64.0166 60.8385C63.5232 61.5318 63.2632 62.4585 63.2366 63.6185C63.2366 63.9785 63.2299 64.3452 63.2166 64.7185C63.2166 65.0785 63.2166 65.4452 63.2166 65.8185C63.2299 66.1785 63.2366 66.5518 63.2366 66.9385C63.2632 68.1252 63.5299 69.0652 64.0366 69.7585C64.5432 70.4385 65.3032 70.7785 66.3166 70.7785ZM74.8519 72.2785C74.5719 72.2785 74.4319 72.1452 74.4319 71.8785C74.4319 71.7985 74.4585 71.7252 74.5119 71.6585L84.3919 58.6585C84.4852 58.5385 84.5719 58.4452 84.6519 58.3785C84.7452 58.3118 84.8785 58.2785 85.0519 58.2785H85.7119C85.9919 58.2785 86.1319 58.4118 86.1319 58.6785C86.1319 58.7585 86.1052 58.8318 86.0519 58.8985L76.1919 71.8985C76.0985 72.0185 76.0052 72.1118 75.9119 72.1785C75.8319 72.2452 75.6985 72.2785 75.5119 72.2785H74.8519ZM84.0119 72.3985C83.1319 72.3985 82.4452 72.1518 81.9519 71.6585C81.4585 71.1652 81.1852 70.5185 81.1319 69.7185C81.1185 69.3718 81.1119 69.0785 81.1119 68.8385C81.1119 68.5852 81.1185 68.2718 81.1319 67.8985C81.1719 67.0985 81.4319 66.4518 81.9119 65.9585C82.3919 65.4518 83.0919 65.1985 84.0119 65.1985C84.9452 65.1985 85.6452 65.4518 86.1119 65.9585C86.5919 66.4518 86.8585 67.0985 86.9119 67.8985C86.9385 68.2718 86.9519 68.5852 86.9519 68.8385C86.9519 69.0785 86.9385 69.3718 86.9119 69.7185C86.8585 70.5185 86.5785 71.1652 86.0719 71.6585C85.5785 72.1518 84.8919 72.3985 84.0119 72.3985ZM84.0119 71.0785C84.3585 71.0785 84.6319 71.0052 84.8319 70.8585C85.0452 70.7118 85.1985 70.5318 85.2919 70.3185C85.3852 70.0918 85.4385 69.8652 85.4519 69.6385C85.4785 69.2785 85.4919 68.9985 85.4919 68.7985C85.4919 68.5852 85.4785 68.3118 85.4519 67.9785C85.4385 67.6185 85.3252 67.2852 85.1119 66.9785C84.8985 66.6718 84.5319 66.5185 84.0119 66.5185C83.5052 66.5185 83.1452 66.6718 82.9319 66.9785C82.7319 67.2852 82.6185 67.6185 82.5919 67.9785C82.5785 68.3118 82.5719 68.5852 82.5719 68.7985C82.5719 68.9985 82.5785 69.2785 82.5919 69.6385C82.6185 69.8652 82.6719 70.0918 82.7519 70.3185C82.8452 70.5318 82.9919 70.7118 83.1919 70.8585C83.4052 71.0052 83.6785 71.0785 84.0119 71.0785ZM76.5319 65.2985C75.6519 65.2985 74.9652 65.0652 74.4719 64.5985C73.9785 64.1318 73.7052 63.4985 73.6519 62.6985C73.6385 62.3518 73.6319 62.0585 73.6319 61.8185C73.6319 61.5652 73.6385 61.2518 73.6519 60.8785C73.6919 60.0785 73.9519 59.4318 74.4319 58.9385C74.9119 58.4318 75.6119 58.1785 76.5319 58.1785C77.4652 58.1785 78.1652 58.4318 78.6319 58.9385C79.1119 59.4318 79.3719 60.0785 79.4119 60.8785C79.4385 61.2518 79.4519 61.5652 79.4519 61.8185C79.4519 62.0585 79.4385 62.3518 79.4119 62.6985C79.3719 63.4985 79.0985 64.1318 78.5919 64.5985C78.0985 65.0652 77.4119 65.2985 76.5319 65.2985ZM76.5319 64.0585C76.8785 64.0585 77.1519 63.9852 77.3519 63.8385C77.5652 63.6918 77.7185 63.5118 77.8119 63.2985C77.9052 63.0718 77.9585 62.8452 77.9719 62.6185C77.9985 62.2585 78.0119 61.9785 78.0119 61.7785C78.0119 61.5652 77.9985 61.2918 77.9719 60.9585C77.9585 60.5985 77.8385 60.2652 77.6119 59.9585C77.3985 59.6518 77.0385 59.4985 76.5319 59.4985C76.0252 59.4985 75.6652 59.6518 75.4519 59.9585C75.2519 60.2652 75.1385 60.5985 75.1119 60.9585C75.0985 61.2918 75.0919 61.5652 75.0919 61.7785C75.0919 61.9785 75.0985 62.2585 75.1119 62.6185C75.1385 62.8452 75.1919 63.0718 75.2719 63.2985C75.3652 63.5118 75.5119 63.6918 75.7119 63.8385C75.9119 63.9852 76.1852 64.0585 76.5319 64.0585Z" fill="black"/>
</svg>
