<svg width="56" height="60" viewBox="0 0 56 60" fill="none" xmlns="http://www.w3.org/2000/svg">
<path d="M56 0V38.0083C56 38.0083 47.6538 33.5826 44.1538 36.7066C40.6539 39.8306 37.423 54.9297 29.6154 50.7645C21.8078 46.5992 24.5 39.8306 21.8077 36.7066C19.1154 33.5826 -3.82891e-05 41.9132 0 25.7727C3.82892e-05 9.63223 13.1923 0 13.1923 0H56Z" fill="#7C1616"/>
<path d="M45.8114 50.145C45.8114 50.145 42.512 49.2903 39.7625 51.5125C37.0129 53.7347 35.9131 54.2475 36.0964 56.1278C36.2797 58.0081 39.7625 58.8627 42.1454 59.7174C44.5283 60.5721 45.8114 57.8371 47.4611 54.7603C49.1109 51.6834 45.8114 50.145 45.8114 50.145Z" fill="#7C1616"/>
<path d="M16.1539 43.2149C15.6154 42.6942 13.7454 40.8877 10.329 41.8528C6.91265 42.8178 5.71692 46.9996 6.91265 48.4471C8.10839 49.8947 12.8619 51.0205 16.9615 48.4471C21.0612 45.8737 16.6923 43.7356 16.1539 43.2149Z" fill="#7C1616"/>
</svg>
