<svg width="63" height="56" viewBox="0 0 63 56" fill="none" xmlns="http://www.w3.org/2000/svg">
<rect width="7.5927" height="3.73176" transform="matrix(0.709482 -0.718907 0.802269 0.574295 2.99463 53.0285)" fill="#232323"/>
<rect width="7.51265" height="3.80622" transform="matrix(-0.988549 0.0507756 -0.14347 1.00298 9.24329 44.7021)" fill="#232323"/>
<rect width="5.47977" height="4.56881" transform="matrix(-0.385414 -0.922744 -0.9108 0.412847 11.3888 49.7762)" fill="#232323"/>
<rect width="7.5927" height="3.73176" transform="matrix(-0.988549 0.0507756 -0.14347 1.00298 35.5443 38.2263)" fill="#232323"/>
<rect width="7.51264" height="3.80622" transform="matrix(0.709482 -0.718907 0.802269 0.574295 25.4368 37.3139)" fill="#232323"/>
<rect width="5.47977" height="4.56881" transform="matrix(-0.385414 -0.922744 0.9108 -0.412847 27.5383 42.4079)" fill="#232323"/>
<rect width="19.2159" height="5.58721" transform="matrix(0.9108 -0.412847 0.385414 0.922744 8.74585 44.8425)" fill="#232323"/>
<rect width="7.6589" height="3.71323" transform="matrix(0.457991 -0.90397 0.937864 0.289896 11.4691 43.6711)" fill="#232323"/>
<rect width="7.57814" height="3.78732" transform="matrix(-0.9173 0.362828 0.161346 1.00516 14.9474 33.7425)" fill="#232323"/>
<rect width="5.41851" height="4.6222" transform="matrix(-0.647107 -0.762399 -0.735523 0.6775 18.4908 37.8797)" fill="#232323"/>
<rect width="7.6589" height="3.71323" transform="matrix(-0.9173 0.362828 0.161346 1.00516 38.0479 19.1302)" fill="#232323"/>
<rect width="7.57814" height="3.78732" transform="matrix(0.457991 -0.90397 0.937864 0.289896 28.163 21.5106)" fill="#232323"/>
<rect width="5.41851" height="4.6222" transform="matrix(-0.647107 -0.762399 0.735523 -0.6775 31.6705 25.6808)" fill="#232323"/>
<rect width="19.4404" height="5.52475" transform="matrix(0.735523 -0.6775 0.647107 0.762399 14.5156 34.036)" fill="#232323"/>
<rect width="7.72142" height="3.6955" transform="matrix(-0.783233 -0.601839 0.417206 -0.927192 50.5808 33.0987)" fill="#232323"/>
<rect width="7.64" height="3.76924" transform="matrix(0.205723 0.990967 0.982849 -0.0161701 41.6764 28.0332)" fill="#232323"/>
<rect width="5.35951" height="4.67248" transform="matrix(-0.829309 0.558791 0.527485 0.849564 46.1324 25.0011)" fill="#232323"/>
<rect width="7.72142" height="3.6955" transform="matrix(0.205723 0.990967 0.982849 -0.0161701 31.2566 2.05624)" fill="#232323"/>
<rect width="7.64" height="3.76924" transform="matrix(-0.783233 -0.601839 0.417206 -0.927192 32.0398 12.5938)" fill="#232323"/>
<rect width="5.35951" height="4.67248" transform="matrix(-0.829309 0.558791 -0.527485 -0.849564 36.5219 9.60349)" fill="#232323"/>
<rect width="19.6519" height="5.4646" transform="matrix(-0.527485 -0.849564 0.829309 -0.558791 41.8905 28.5217)" fill="#232323"/>
<rect width="7.62735" height="3.72209" transform="matrix(0.960598 0.22818 -0.0263447 1.01632 29.2498 29.1949)" fill="#232323"/>
<rect width="7.54693" height="3.79636" transform="matrix(-0.575927 -0.832763 -0.888269 0.421173 39.3557 30.1288)" fill="#232323"/>
<rect width="5.44785" height="4.59677" transform="matrix(0.536812 -0.843702 -0.822895 -0.568194 36.4351 34.7641)" fill="#232323"/>
<rect width="7.62736" height="3.72209" transform="matrix(-0.575927 -0.832763 -0.888269 0.421173 58.8767 49.5988)" fill="#232323"/>
<rect width="7.54693" height="3.79636" transform="matrix(0.960598 0.22818 -0.0263447 1.01632 54.1144 40.2666)" fill="#232323"/>
<rect width="5.44785" height="4.59677" transform="matrix(0.536812 -0.843702 0.822895 0.568194 51.1539 44.8743)" fill="#232323"/>
<rect width="19.3335" height="5.55467" transform="matrix(0.822895 0.568194 -0.536812 0.843702 38.9719 29.7704)" fill="#232323"/>
<rect width="7.55476" height="3.74226" transform="matrix(-0.930556 -0.366149 -0.514246 0.857643 56.4613 52.7904)" fill="#232323"/>
<rect width="7.47509" height="3.81694" transform="matrix(0.930556 -0.36615 0.514246 0.857643 47.5424 47.7527)" fill="#232323"/>
<rect x="47.5184" y="53.2971" width="5.51434" height="4.53813" transform="rotate(-90 47.5184 53.2971)" fill="#232323"/>
<rect width="7.55475" height="3.74226" transform="matrix(0.930556 -0.36615 0.514246 0.857643 20.9453 52.7464)" fill="#232323"/>
<rect width="7.4751" height="3.81694" transform="matrix(-0.930556 -0.366149 -0.514246 0.857643 29.8643 47.7086)" fill="#232323"/>
<rect width="5.51434" height="4.53813" transform="matrix(-1.3788e-07 -1 -1 1.26481e-07 29.8881 53.2531)" fill="#232323"/>
<rect width="19.0868" height="5.62247" transform="matrix(-1 9.10719e-08 8.39199e-08 1 48.0524 47.6747)" fill="#232323"/>
</svg>
