<svg width="56" height="56" viewBox="0 0 56 56" fill="none" xmlns="http://www.w3.org/2000/svg">
<rect width="56" height="56" fill="black"/>
<path fill-rule="evenodd" clip-rule="evenodd" d="M0 0H56V56H0V0ZM48.5333 17.2667C48.5333 22.6791 44.1457 27.0667 38.7333 27.0667C33.321 27.0667 28.9333 22.6791 28.9333 17.2667C28.9333 11.8543 33.321 7.46669 38.7333 7.46669C44.1457 7.46669 48.5333 11.8543 48.5333 17.2667ZM11.6667 38.2667C14.5017 38.2667 16.8 35.9684 16.8 33.1333C16.8 30.2983 14.5017 28 11.6667 28C8.8316 28 6.53333 30.2983 6.53333 33.1333C6.53333 35.9684 8.8316 38.2667 11.6667 38.2667ZM42 42.4667C42 46.3327 38.866 49.4667 35 49.4667C31.134 49.4667 28 46.3327 28 42.4667C28 38.6007 31.134 35.4667 35 35.4667C38.866 35.4667 42 38.6007 42 42.4667ZM14.9334 14C16.4798 14 17.7334 12.7464 17.7334 11.2C17.7334 9.6536 16.4798 8.4 14.9334 8.4C13.387 8.4 12.1334 9.6536 12.1334 11.2C12.1334 12.7464 13.387 14 14.9334 14Z" fill="#E1B000"/>
</svg>
