<svg width="473" height="247" viewBox="0 0 473 247" fill="none" xmlns="http://www.w3.org/2000/svg">
<rect y="29.896" width="175.351" height="152.545" fill="#E1B000"/>
<path d="M207.107 203.148L134.62 168.953L172.297 137.575L207.107 203.148Z" fill="#E1B000"/>
<path d="M43.2 70C43.0533 70 42.94 69.96 42.86 69.88C42.78 69.7867 42.74 69.6733 42.74 69.54V56.48C42.74 56.3333 42.78 56.22 42.86 56.14C42.94 56.0467 43.0533 56 43.2 56H51.9C52.0467 56 52.16 56.0467 52.24 56.14C52.32 56.22 52.36 56.3333 52.36 56.48V57.28C52.36 57.4133 52.32 57.5267 52.24 57.62C52.16 57.7 52.0467 57.74 51.9 57.74H44.7V61.78H48.66C50.0733 61.78 51.1733 62.1467 51.96 62.88C52.7467 63.6133 53.14 64.6 53.14 65.84C53.14 66.3333 53.0467 66.8267 52.86 67.32C52.6733 67.8133 52.3933 68.26 52.02 68.66C51.66 69.06 51.2 69.3867 50.64 69.64C50.08 69.88 49.42 70 48.66 70H43.2ZM44.7 68.38H48.42C49.0067 68.38 49.5 68.2667 49.9 68.04C50.3 67.8 50.6067 67.48 50.82 67.08C51.0333 66.68 51.14 66.2467 51.14 65.78C51.14 65.0733 50.9133 64.5 50.46 64.06C50.02 63.6067 49.34 63.38 48.42 63.38H44.7V68.38ZM59.5134 70.2C58.5001 70.2 57.6534 70.0067 56.9734 69.62C56.2934 69.2333 55.7734 68.7 55.4134 68.02C55.0534 67.3267 54.8534 66.54 54.8134 65.66C54.8001 65.4333 54.7934 65.1467 54.7934 64.8C54.7934 64.44 54.8001 64.1533 54.8134 63.94C54.8534 63.0467 55.0534 62.26 55.4134 61.58C55.7868 60.9 56.3134 60.3667 56.9934 59.98C57.6734 59.5933 58.5134 59.4 59.5134 59.4C60.5134 59.4 61.3534 59.5933 62.0334 59.98C62.7134 60.3667 63.2334 60.9 63.5934 61.58C63.9668 62.26 64.1734 63.0467 64.2134 63.94C64.2268 64.1533 64.2334 64.44 64.2334 64.8C64.2334 65.1467 64.2268 65.4333 64.2134 65.66C64.1734 66.54 63.9734 67.3267 63.6134 68.02C63.2534 68.7 62.7334 69.2333 62.0534 69.62C61.3734 70.0067 60.5268 70.2 59.5134 70.2ZM59.5134 68.66C60.3401 68.66 61.0001 68.4 61.4934 67.88C61.9868 67.3467 62.2534 66.5733 62.2934 65.56C62.3068 65.36 62.3134 65.1067 62.3134 64.8C62.3134 64.4933 62.3068 64.24 62.2934 64.04C62.2534 63.0267 61.9868 62.26 61.4934 61.74C61.0001 61.2067 60.3401 60.94 59.5134 60.94C58.6868 60.94 58.0201 61.2067 57.5134 61.74C57.0201 62.26 56.7601 63.0267 56.7334 64.04C56.7201 64.24 56.7134 64.4933 56.7134 64.8C56.7134 65.1067 56.7201 65.36 56.7334 65.56C56.7601 66.5733 57.0201 67.3467 57.5134 67.88C58.0201 68.4 58.6868 68.66 59.5134 68.66ZM73.2178 70C73.0711 70 72.9578 69.96 72.8778 69.88C72.7978 69.7867 72.7578 69.6733 72.7578 69.54V66.28H70.4578V66.18C69.2045 66.18 68.2711 65.8733 67.6578 65.26C67.0578 64.6333 66.7578 63.84 66.7578 62.88C66.7578 61.76 67.0845 60.9333 67.7378 60.4C68.4045 59.8667 69.4045 59.6 70.7378 59.6H74.1778C74.3111 59.6 74.4178 59.6467 74.4978 59.74C74.5911 59.82 74.6378 59.9267 74.6378 60.06V69.54C74.6378 69.6733 74.5911 69.7867 74.4978 69.88C74.4178 69.96 74.3111 70 74.1778 70H73.2178ZM66.8778 70C66.7578 70 66.6578 69.96 66.5778 69.88C66.4978 69.8 66.4578 69.7067 66.4578 69.6C66.4578 69.5467 66.4645 69.4933 66.4778 69.44C66.5045 69.3733 66.5445 69.3067 66.5978 69.24L68.9778 65.72L70.8978 65.86L68.3578 69.7C68.3045 69.7667 68.2311 69.8333 68.1378 69.9C68.0445 69.9667 67.9445 70 67.8378 70H66.8778ZM70.5178 64.78H72.7778V61.1H70.6778C69.9311 61.1 69.3778 61.2333 69.0178 61.5C68.6711 61.7533 68.4978 62.2133 68.4978 62.88C68.4978 63.4267 68.6578 63.88 68.9778 64.24C69.3111 64.6 69.8245 64.78 70.5178 64.78ZM81.2367 70.2C80.4501 70.2 79.7834 70.1067 79.2367 69.92C78.7034 69.72 78.2701 69.4733 77.9367 69.18C77.6167 68.8733 77.3834 68.56 77.2367 68.24C77.0901 67.9067 77.0101 67.6 76.9967 67.32C76.9967 67.2 77.0367 67.1067 77.1167 67.04C77.1967 66.96 77.2901 66.92 77.3967 66.92H78.3367C78.4567 66.92 78.5567 66.9533 78.6367 67.02C78.7167 67.0733 78.7767 67.1733 78.8167 67.32C78.9767 67.8267 79.2834 68.18 79.7367 68.38C80.1901 68.58 80.7434 68.68 81.3967 68.68C81.8234 68.68 82.2167 68.6267 82.5767 68.52C82.9367 68.4 83.2167 68.2133 83.4167 67.96C83.6301 67.7067 83.7367 67.3933 83.7367 67.02C83.7367 66.4733 83.5767 66.06 83.2567 65.78C82.9501 65.5 82.4701 65.36 81.8167 65.36H80.7167C80.5834 65.36 80.4767 65.32 80.3967 65.24C80.3167 65.16 80.2767 65.0533 80.2767 64.92V64.38C80.2767 64.26 80.3167 64.16 80.3967 64.08C80.4767 63.9867 80.5834 63.94 80.7167 63.94H81.6967C82.2434 63.94 82.6634 63.8333 82.9567 63.62C83.2501 63.4067 83.3967 63.0667 83.3967 62.6C83.3967 62.32 83.3301 62.0533 83.1967 61.8C83.0634 61.5467 82.8367 61.34 82.5167 61.18C82.2101 61.0067 81.7834 60.92 81.2367 60.92C80.4634 60.92 79.9167 61.0533 79.5967 61.32C79.2901 61.5733 79.0701 61.9533 78.9367 62.46C78.8834 62.6067 78.8167 62.7067 78.7367 62.76C78.6701 62.8133 78.5701 62.84 78.4367 62.84H77.5367C77.4167 62.84 77.3167 62.8067 77.2367 62.74C77.1567 62.6733 77.1167 62.58 77.1167 62.46C77.1301 62.06 77.2167 61.68 77.3767 61.32C77.5501 60.96 77.8034 60.6333 78.1367 60.34C78.4834 60.0467 78.9101 59.82 79.4167 59.66C79.9367 59.4867 80.5434 59.4 81.2367 59.4C82.2367 59.4 83.0234 59.5533 83.5967 59.86C84.1834 60.1667 84.5967 60.5467 84.8367 61C85.0901 61.44 85.2167 61.88 85.2167 62.32C85.2167 62.84 85.1301 63.2733 84.9567 63.62C84.7967 63.9667 84.4767 64.26 83.9967 64.5C84.5967 64.7267 85.0101 65.0667 85.2367 65.52C85.4634 65.9733 85.5834 66.5 85.5967 67.1C85.6101 67.7933 85.4234 68.3667 85.0367 68.82C84.6634 69.2733 84.1501 69.62 83.4967 69.86C82.8434 70.0867 82.0901 70.2 81.2367 70.2ZM88.3111 70C88.1778 70 88.0644 69.96 87.9711 69.88C87.8911 69.7867 87.8511 69.6733 87.8511 69.54V60.06C87.8511 59.9267 87.8911 59.82 87.9711 59.74C88.0644 59.6467 88.1778 59.6 88.3111 59.6H89.2711C89.4044 59.6 89.5111 59.6467 89.5911 59.74C89.6711 59.82 89.7111 59.9267 89.7111 60.06V63.9H95.1711V60.06C95.1711 59.9267 95.2111 59.82 95.2911 59.74C95.3844 59.6467 95.4978 59.6 95.6311 59.6H96.5711C96.7044 59.6 96.8111 59.6467 96.8911 59.74C96.9844 59.82 97.0311 59.9267 97.0311 60.06V69.54C97.0311 69.6733 96.9844 69.7867 96.8911 69.88C96.8111 69.96 96.7044 70 96.5711 70H95.6311C95.4978 70 95.3844 69.96 95.2911 69.88C95.2111 69.7867 95.1711 69.6733 95.1711 69.54V65.5H89.7111V69.54C89.7111 69.6733 89.6711 69.7867 89.5911 69.88C89.5111 69.96 89.4044 70 89.2711 70H88.3111ZM100.479 70C100.359 70 100.252 69.96 100.159 69.88C100.079 69.7867 100.039 69.6867 100.039 69.58V60.06C100.039 59.9267 100.079 59.82 100.159 59.74C100.252 59.6467 100.365 59.6 100.499 59.6H101.459C101.592 59.6 101.699 59.6467 101.779 59.74C101.859 59.82 101.899 59.9267 101.899 60.06V68.54L101.379 68L107.439 59.9C107.505 59.82 107.579 59.7533 107.659 59.7C107.739 59.6333 107.839 59.6 107.959 59.6H108.879C108.985 59.6 109.079 59.64 109.159 59.72C109.252 59.8 109.299 59.8933 109.299 60V69.54C109.299 69.6733 109.252 69.7867 109.159 69.88C109.079 69.96 108.972 70 108.839 70H107.899C107.752 70 107.639 69.96 107.559 69.88C107.479 69.7867 107.439 69.6733 107.439 69.54V61.56L107.999 61.54L101.899 69.7C101.845 69.7667 101.779 69.8333 101.699 69.9C101.619 69.9667 101.512 70 101.379 70H100.479ZM112.686 70C112.553 70 112.439 69.96 112.346 69.88C112.266 69.7867 112.226 69.6733 112.226 69.54V60.06C112.226 59.9267 112.266 59.82 112.346 59.74C112.439 59.6467 112.553 59.6 112.686 59.6H113.626C113.759 59.6 113.866 59.6467 113.946 59.74C114.039 59.82 114.086 59.9267 114.086 60.06V63.9H115.906L118.606 59.9C118.673 59.8067 118.746 59.7333 118.826 59.68C118.906 59.6267 119.013 59.6 119.146 59.6H120.186C120.306 59.6 120.406 59.6267 120.486 59.68C120.566 59.7333 120.606 59.8133 120.606 59.92C120.606 59.9467 120.593 59.9867 120.566 60.04C120.553 60.08 120.533 60.12 120.506 60.16L117.506 64.58L120.906 69.42C120.973 69.5 121.006 69.5867 121.006 69.68C121.006 69.7867 120.966 69.8667 120.886 69.92C120.819 69.9733 120.726 70 120.606 70H119.386C119.266 70 119.166 69.9733 119.086 69.92C119.006 69.8667 118.933 69.7933 118.866 69.7L115.926 65.52H114.086V69.54C114.086 69.6733 114.039 69.7867 113.946 69.88C113.866 69.96 113.759 70 113.626 70H112.686ZM127.209 70.2C126.195 70.2 125.349 70.0067 124.669 69.62C123.989 69.2333 123.469 68.7 123.109 68.02C122.749 67.3267 122.549 66.54 122.509 65.66C122.495 65.4333 122.489 65.1467 122.489 64.8C122.489 64.44 122.495 64.1533 122.509 63.94C122.549 63.0467 122.749 62.26 123.109 61.58C123.482 60.9 124.009 60.3667 124.689 59.98C125.369 59.5933 126.209 59.4 127.209 59.4C128.209 59.4 129.049 59.5933 129.729 59.98C130.409 60.3667 130.929 60.9 131.289 61.58C131.662 62.26 131.869 63.0467 131.909 63.94C131.922 64.1533 131.929 64.44 131.929 64.8C131.929 65.1467 131.922 65.4333 131.909 65.66C131.869 66.54 131.669 67.3267 131.309 68.02C130.949 68.7 130.429 69.2333 129.749 69.62C129.069 70.0067 128.222 70.2 127.209 70.2ZM127.209 68.66C128.035 68.66 128.695 68.4 129.189 67.88C129.682 67.3467 129.949 66.5733 129.989 65.56C130.002 65.36 130.009 65.1067 130.009 64.8C130.009 64.4933 130.002 64.24 129.989 64.04C129.949 63.0267 129.682 62.26 129.189 61.74C128.695 61.2067 128.035 60.94 127.209 60.94C126.382 60.94 125.715 61.2067 125.209 61.74C124.715 62.26 124.455 63.0267 124.429 64.04C124.415 64.24 124.409 64.4933 124.409 64.8C124.409 65.1067 124.415 65.36 124.429 65.56C124.455 66.5733 124.715 67.3467 125.209 67.88C125.715 68.4 126.382 68.66 127.209 68.66ZM134.893 70C134.76 70 134.646 69.96 134.553 69.88C134.473 69.7867 134.433 69.6733 134.433 69.54V60.06C134.433 59.9267 134.473 59.82 134.553 59.74C134.646 59.6467 134.76 59.6 134.893 59.6H139.053C140.306 59.6 141.246 59.8533 141.873 60.36C142.513 60.8667 142.833 61.5467 142.833 62.4C142.833 63 142.72 63.4533 142.493 63.76C142.266 64.0667 141.946 64.3267 141.533 64.54C142.04 64.7533 142.42 65.1 142.673 65.58C142.94 66.0467 143.073 66.5333 143.073 67.04C143.073 68 142.733 68.7333 142.053 69.24C141.373 69.7467 140.426 70 139.213 70H134.893ZM136.273 68.54H139.053C139.693 68.54 140.206 68.42 140.593 68.18C140.993 67.9267 141.193 67.5467 141.193 67.04C141.193 66.5067 141.013 66.12 140.653 65.88C140.293 65.6267 139.76 65.5 139.053 65.5H136.273V68.54ZM136.273 64.02H138.933C139.573 64.02 140.08 63.88 140.453 63.6C140.84 63.32 141.033 62.9267 141.033 62.42C141.033 61.9 140.84 61.5467 140.453 61.36C140.08 61.16 139.573 61.06 138.933 61.06H136.273V64.02ZM148.544 70.2C147.877 70.2 147.271 70.0667 146.724 69.8C146.177 69.5333 145.737 69.1733 145.404 68.72C145.071 68.2667 144.904 67.7533 144.904 67.18C144.904 66.26 145.277 65.5267 146.024 64.98C146.771 64.4333 147.744 64.0733 148.944 63.9L151.924 63.48V62.9C151.924 62.26 151.737 61.76 151.364 61.4C151.004 61.04 150.411 60.86 149.584 60.86C148.984 60.86 148.497 60.98 148.124 61.22C147.764 61.46 147.511 61.7667 147.364 62.14C147.284 62.34 147.144 62.44 146.944 62.44H146.044C145.897 62.44 145.784 62.4 145.704 62.32C145.637 62.2267 145.604 62.12 145.604 62C145.604 61.8 145.677 61.5533 145.824 61.26C145.984 60.9667 146.224 60.68 146.544 60.4C146.864 60.12 147.271 59.8867 147.764 59.7C148.271 59.5 148.884 59.4 149.604 59.4C150.404 59.4 151.077 59.5067 151.624 59.72C152.171 59.92 152.597 60.1933 152.904 60.54C153.224 60.8867 153.451 61.28 153.584 61.72C153.731 62.16 153.804 62.6067 153.804 63.06V69.54C153.804 69.6733 153.757 69.7867 153.664 69.88C153.584 69.96 153.477 70 153.344 70H152.424C152.277 70 152.164 69.96 152.084 69.88C152.004 69.7867 151.964 69.6733 151.964 69.54V68.68C151.791 68.92 151.557 69.16 151.264 69.4C150.971 69.6267 150.604 69.82 150.164 69.98C149.724 70.1267 149.184 70.2 148.544 70.2ZM148.964 68.7C149.511 68.7 150.011 68.5867 150.464 68.36C150.917 68.12 151.271 67.7533 151.524 67.26C151.791 66.7667 151.924 66.1467 151.924 65.4V64.84L149.604 65.18C148.657 65.3133 147.944 65.54 147.464 65.86C146.984 66.1667 146.744 66.56 146.744 67.04C146.744 67.4133 146.851 67.7267 147.064 67.98C147.291 68.22 147.571 68.4 147.904 68.52C148.251 68.64 148.604 68.7 148.964 68.7ZM41.8 94C41.6933 94 41.6 93.96 41.52 93.88C41.44 93.8 41.4 93.7067 41.4 93.6C41.4 93.5333 41.4067 93.46 41.42 93.38L46.38 80.44C46.4333 80.3067 46.5067 80.2 46.6 80.12C46.6933 80.04 46.8333 80 47.02 80H48.38C48.5533 80 48.6867 80.04 48.78 80.12C48.8867 80.2 48.9667 80.3067 49.02 80.44L53.96 93.38C53.9867 93.46 54 93.5333 54 93.6C54 93.7067 53.96 93.8 53.88 93.88C53.8 93.96 53.7067 94 53.6 94H52.58C52.42 94 52.3 93.96 52.22 93.88C52.1533 93.8 52.1067 93.7267 52.08 93.66L50.98 90.82H44.42L43.32 93.66C43.3067 93.7267 43.26 93.8 43.18 93.88C43.1 93.96 42.98 94 42.82 94H41.8ZM45 89.1H50.4L47.7 82L45 89.1ZM56.3384 94C56.2051 94 56.0918 93.96 55.9984 93.88C55.9184 93.7867 55.8784 93.6733 55.8784 93.54V84.06C55.8784 83.9267 55.9184 83.82 55.9984 83.74C56.0918 83.6467 56.2051 83.6 56.3384 83.6H57.2984C57.4318 83.6 57.5384 83.6467 57.6184 83.74C57.6984 83.82 57.7384 83.9267 57.7384 84.06V87.9H63.1984V84.06C63.1984 83.9267 63.2384 83.82 63.3184 83.74C63.4118 83.6467 63.5251 83.6 63.6584 83.6H64.5984C64.7318 83.6 64.8384 83.6467 64.9184 83.74C65.0118 83.82 65.0584 83.9267 65.0584 84.06V93.54C65.0584 93.6733 65.0118 93.7867 64.9184 93.88C64.8384 93.96 64.7318 94 64.5984 94H63.6584C63.5251 94 63.4118 93.96 63.3184 93.88C63.2384 93.7867 63.1984 93.6733 63.1984 93.54V89.5H57.7384V93.54C57.7384 93.6733 57.6984 93.7867 57.6184 93.88C57.5384 93.96 57.4318 94 57.2984 94H56.3384ZM70.9659 94.2C70.2993 94.2 69.6926 94.0667 69.1459 93.8C68.5993 93.5333 68.1593 93.1733 67.8259 92.72C67.4926 92.2667 67.3259 91.7533 67.3259 91.18C67.3259 90.26 67.6993 89.5267 68.4459 88.98C69.1926 88.4333 70.1659 88.0733 71.3659 87.9L74.3459 87.48V86.9C74.3459 86.26 74.1593 85.76 73.7859 85.4C73.4259 85.04 72.8326 84.86 72.0059 84.86C71.4059 84.86 70.9193 84.98 70.5459 85.22C70.1859 85.46 69.9326 85.7667 69.7859 86.14C69.7059 86.34 69.5659 86.44 69.3659 86.44H68.4659C68.3193 86.44 68.2059 86.4 68.1259 86.32C68.0593 86.2267 68.0259 86.12 68.0259 86C68.0259 85.8 68.0993 85.5533 68.2459 85.26C68.4059 84.9667 68.6459 84.68 68.9659 84.4C69.2859 84.12 69.6926 83.8867 70.1859 83.7C70.6926 83.5 71.3059 83.4 72.0259 83.4C72.8259 83.4 73.4993 83.5067 74.0459 83.72C74.5926 83.92 75.0193 84.1933 75.3259 84.54C75.6459 84.8867 75.8726 85.28 76.0059 85.72C76.1526 86.16 76.2259 86.6067 76.2259 87.06V93.54C76.2259 93.6733 76.1793 93.7867 76.0859 93.88C76.0059 93.96 75.8993 94 75.7659 94H74.8459C74.6993 94 74.5859 93.96 74.5059 93.88C74.4259 93.7867 74.3859 93.6733 74.3859 93.54V92.68C74.2126 92.92 73.9793 93.16 73.6859 93.4C73.3926 93.6267 73.0259 93.82 72.5859 93.98C72.1459 94.1267 71.6059 94.2 70.9659 94.2ZM71.3859 92.7C71.9326 92.7 72.4326 92.5867 72.8859 92.36C73.3393 92.12 73.6926 91.7533 73.9459 91.26C74.2126 90.7667 74.3459 90.1467 74.3459 89.4V88.84L72.0259 89.18C71.0793 89.3133 70.3659 89.54 69.8859 89.86C69.4059 90.1667 69.1659 90.56 69.1659 91.04C69.1659 91.4133 69.2726 91.7267 69.4859 91.98C69.7126 92.22 69.9926 92.4 70.3259 92.52C70.6726 92.64 71.0259 92.7 71.3859 92.7ZM83.3011 94.2C82.3544 94.2 81.5344 94.02 80.8411 93.66C80.1611 93.2867 79.6344 92.76 79.2611 92.08C78.8878 91.3867 78.6878 90.56 78.6611 89.6C78.6478 89.4 78.6411 89.1333 78.6411 88.8C78.6411 88.4667 78.6478 88.2 78.6611 88C78.6878 87.04 78.8878 86.22 79.2611 85.54C79.6344 84.8467 80.1611 84.32 80.8411 83.96C81.5344 83.5867 82.3544 83.4 83.3011 83.4C84.0744 83.4 84.7344 83.5067 85.2811 83.72C85.8411 83.9333 86.3011 84.2067 86.6611 84.54C87.0211 84.8733 87.2878 85.2333 87.4611 85.62C87.6478 86.0067 87.7478 86.3733 87.7611 86.72C87.7744 86.8533 87.7344 86.96 87.6411 87.04C87.5478 87.12 87.4344 87.16 87.3011 87.16H86.3411C86.2078 87.16 86.1078 87.1333 86.0411 87.08C85.9744 87.0133 85.9078 86.9067 85.8411 86.76C85.6011 86.1067 85.2744 85.6467 84.8611 85.38C84.4478 85.1133 83.9344 84.98 83.3211 84.98C82.5211 84.98 81.8678 85.2267 81.3611 85.72C80.8678 86.2133 80.6011 87.0067 80.5611 88.1C80.5478 88.58 80.5478 89.0467 80.5611 89.5C80.6011 90.6067 80.8678 91.4067 81.3611 91.9C81.8678 92.38 82.5211 92.62 83.3211 92.62C83.9344 92.62 84.4478 92.4867 84.8611 92.22C85.2744 91.9533 85.6011 91.4933 85.8411 90.84C85.9078 90.6933 85.9744 90.5933 86.0411 90.54C86.1078 90.4733 86.2078 90.44 86.3411 90.44H87.3011C87.4344 90.44 87.5478 90.48 87.6411 90.56C87.7344 90.64 87.7744 90.7467 87.7611 90.88C87.7478 91.16 87.6878 91.4467 87.5811 91.74C87.4744 92.0333 87.3011 92.3333 87.0611 92.64C86.8344 92.9333 86.5478 93.2 86.2011 93.44C85.8544 93.6667 85.4344 93.8533 84.9411 94C84.4611 94.1333 83.9144 94.2 83.3011 94.2ZM93.3163 94C93.1829 94 93.0696 93.96 92.9763 93.88C92.8963 93.7867 92.8563 93.6733 92.8563 93.54V85.2H89.3763C89.2429 85.2 89.1296 85.16 89.0363 85.08C88.9563 84.9867 88.9163 84.8733 88.9163 84.74V84.06C88.9163 83.9267 88.9563 83.82 89.0363 83.74C89.1296 83.6467 89.2429 83.6 89.3763 83.6H98.1763C98.3096 83.6 98.4163 83.6467 98.4963 83.74C98.5896 83.82 98.6363 83.9267 98.6363 84.06V84.74C98.6363 84.8733 98.5896 84.9867 98.4963 85.08C98.4163 85.16 98.3096 85.2 98.1763 85.2H94.6963V93.54C94.6963 93.6733 94.6563 93.7867 94.5763 93.88C94.4963 93.96 94.3829 94 94.2363 94H93.3163ZM103.271 94.2C102.604 94.2 101.997 94.0667 101.451 93.8C100.904 93.5333 100.464 93.1733 100.131 92.72C99.7973 92.2667 99.6306 91.7533 99.6306 91.18C99.6306 90.26 100.004 89.5267 100.751 88.98C101.497 88.4333 102.471 88.0733 103.671 87.9L106.651 87.48V86.9C106.651 86.26 106.464 85.76 106.091 85.4C105.731 85.04 105.137 84.86 104.311 84.86C103.711 84.86 103.224 84.98 102.851 85.22C102.491 85.46 102.237 85.7667 102.091 86.14C102.011 86.34 101.871 86.44 101.671 86.44H100.771C100.624 86.44 100.511 86.4 100.431 86.32C100.364 86.2267 100.331 86.12 100.331 86C100.331 85.8 100.404 85.5533 100.551 85.26C100.711 84.9667 100.951 84.68 101.271 84.4C101.591 84.12 101.997 83.8867 102.491 83.7C102.997 83.5 103.611 83.4 104.331 83.4C105.131 83.4 105.804 83.5067 106.351 83.72C106.897 83.92 107.324 84.1933 107.631 84.54C107.951 84.8867 108.177 85.28 108.311 85.72C108.457 86.16 108.531 86.6067 108.531 87.06V93.54C108.531 93.6733 108.484 93.7867 108.391 93.88C108.311 93.96 108.204 94 108.071 94H107.151C107.004 94 106.891 93.96 106.811 93.88C106.731 93.7867 106.691 93.6733 106.691 93.54V92.68C106.517 92.92 106.284 93.16 105.991 93.4C105.697 93.6267 105.331 93.82 104.891 93.98C104.451 94.1267 103.911 94.2 103.271 94.2ZM103.691 92.7C104.237 92.7 104.737 92.5867 105.191 92.36C105.644 92.12 105.997 91.7533 106.251 91.26C106.517 90.7667 106.651 90.1467 106.651 89.4V88.84L104.331 89.18C103.384 89.3133 102.671 89.54 102.191 89.86C101.711 90.1667 101.471 90.56 101.471 91.04C101.471 91.4133 101.577 91.7267 101.791 91.98C102.017 92.22 102.297 92.4 102.631 92.52C102.977 92.64 103.331 92.7 103.691 92.7ZM115.606 94.2C114.659 94.2 113.839 94.02 113.146 93.66C112.466 93.2867 111.939 92.76 111.566 92.08C111.192 91.3867 110.992 90.56 110.966 89.6C110.952 89.4 110.946 89.1333 110.946 88.8C110.946 88.4667 110.952 88.2 110.966 88C110.992 87.04 111.192 86.22 111.566 85.54C111.939 84.8467 112.466 84.32 113.146 83.96C113.839 83.5867 114.659 83.4 115.606 83.4C116.379 83.4 117.039 83.5067 117.586 83.72C118.146 83.9333 118.606 84.2067 118.966 84.54C119.326 84.8733 119.592 85.2333 119.766 85.62C119.952 86.0067 120.052 86.3733 120.066 86.72C120.079 86.8533 120.039 86.96 119.946 87.04C119.852 87.12 119.739 87.16 119.606 87.16H118.646C118.512 87.16 118.412 87.1333 118.346 87.08C118.279 87.0133 118.212 86.9067 118.146 86.76C117.906 86.1067 117.579 85.6467 117.166 85.38C116.752 85.1133 116.239 84.98 115.626 84.98C114.826 84.98 114.172 85.2267 113.666 85.72C113.172 86.2133 112.906 87.0067 112.866 88.1C112.852 88.58 112.852 89.0467 112.866 89.5C112.906 90.6067 113.172 91.4067 113.666 91.9C114.172 92.38 114.826 92.62 115.626 92.62C116.239 92.62 116.752 92.4867 117.166 92.22C117.579 91.9533 117.906 91.4933 118.146 90.84C118.212 90.6933 118.279 90.5933 118.346 90.54C118.412 90.4733 118.512 90.44 118.646 90.44H119.606C119.739 90.44 119.852 90.48 119.946 90.56C120.039 90.64 120.079 90.7467 120.066 90.88C120.052 91.16 119.992 91.4467 119.886 91.74C119.779 92.0333 119.606 92.3333 119.366 92.64C119.139 92.9333 118.852 93.2 118.506 93.44C118.159 93.6667 117.739 93.8533 117.246 94C116.766 94.1333 116.219 94.2 115.606 94.2ZM122.881 94C122.761 94 122.654 93.96 122.561 93.88C122.481 93.7867 122.441 93.6867 122.441 93.58V84.06C122.441 83.9267 122.481 83.82 122.561 83.74C122.654 83.6467 122.768 83.6 122.901 83.6H123.861C123.994 83.6 124.101 83.6467 124.181 83.74C124.261 83.82 124.301 83.9267 124.301 84.06V92.54L123.781 92L129.841 83.9C129.908 83.82 129.981 83.7533 130.061 83.7C130.141 83.6333 130.241 83.6 130.361 83.6H131.281C131.388 83.6 131.481 83.64 131.561 83.72C131.654 83.8 131.701 83.8933 131.701 84V93.54C131.701 93.6733 131.654 93.7867 131.561 93.88C131.481 93.96 131.374 94 131.241 94H130.301C130.154 94 130.041 93.96 129.961 93.88C129.881 93.7867 129.841 93.6733 129.841 93.54V85.56L130.401 85.54L124.301 93.7C124.248 93.7667 124.181 93.8333 124.101 93.9C124.021 93.9667 123.914 94 123.781 94H122.881ZM141.108 94C140.962 94 140.848 93.96 140.768 93.88C140.688 93.7867 140.648 93.6733 140.648 93.54V90.28H138.348V90.18C137.095 90.18 136.162 89.8733 135.548 89.26C134.948 88.6333 134.648 87.84 134.648 86.88C134.648 85.76 134.975 84.9333 135.628 84.4C136.295 83.8667 137.295 83.6 138.628 83.6H142.068C142.202 83.6 142.308 83.6467 142.388 83.74C142.482 83.82 142.528 83.9267 142.528 84.06V93.54C142.528 93.6733 142.482 93.7867 142.388 93.88C142.308 93.96 142.202 94 142.068 94H141.108ZM134.768 94C134.648 94 134.548 93.96 134.468 93.88C134.388 93.8 134.348 93.7067 134.348 93.6C134.348 93.5467 134.355 93.4933 134.368 93.44C134.395 93.3733 134.435 93.3067 134.488 93.24L136.868 89.72L138.788 89.86L136.248 93.7C136.195 93.7667 136.122 93.8333 136.028 93.9C135.935 93.9667 135.835 94 135.728 94H134.768ZM138.408 88.78H140.668V85.1H138.568C137.822 85.1 137.268 85.2333 136.908 85.5C136.562 85.7533 136.388 86.2133 136.388 86.88C136.388 87.4267 136.548 87.88 136.868 88.24C137.202 88.6 137.715 88.78 138.408 88.78Z" fill="black"/>
<path d="M43.2 120C43.0533 120 42.94 119.96 42.86 119.88C42.78 119.787 42.74 119.673 42.74 119.54V106.48C42.74 106.333 42.78 106.22 42.86 106.14C42.94 106.047 43.0533 106 43.2 106H51.9C52.0467 106 52.16 106.047 52.24 106.14C52.32 106.22 52.36 106.333 52.36 106.48V107.28C52.36 107.413 52.32 107.527 52.24 107.62C52.16 107.7 52.0467 107.74 51.9 107.74H44.7V111.78H48.66C50.0733 111.78 51.1733 112.147 51.96 112.88C52.7467 113.613 53.14 114.6 53.14 115.84C53.14 116.333 53.0467 116.827 52.86 117.32C52.6733 117.813 52.3933 118.26 52.02 118.66C51.66 119.06 51.2 119.387 50.64 119.64C50.08 119.88 49.42 120 48.66 120H43.2ZM44.7 118.38H48.42C49.0067 118.38 49.5 118.267 49.9 118.04C50.3 117.8 50.6067 117.48 50.82 117.08C51.0333 116.68 51.14 116.247 51.14 115.78C51.14 115.073 50.9133 114.5 50.46 114.06C50.02 113.607 49.34 113.38 48.42 113.38H44.7V118.38ZM55.2134 120C55.0801 120 54.9668 119.96 54.8734 119.88C54.7934 119.787 54.7534 119.673 54.7534 119.54V118.9C54.7534 118.78 54.7868 118.647 54.8534 118.5C54.9201 118.353 55.0534 118.193 55.2534 118.02L59.4934 113.78C60.1734 113.207 60.7068 112.72 61.0934 112.32C61.4934 111.907 61.7734 111.513 61.9334 111.14C62.1068 110.767 62.1934 110.38 62.1934 109.98C62.1934 109.22 61.9801 108.62 61.5534 108.18C61.1268 107.727 60.4934 107.5 59.6534 107.5C59.1201 107.5 58.6601 107.613 58.2734 107.84C57.8868 108.053 57.5801 108.353 57.3534 108.74C57.1401 109.113 57.0001 109.54 56.9334 110.02C56.9068 110.193 56.8334 110.313 56.7134 110.38C56.6068 110.447 56.5068 110.48 56.4134 110.48H55.3734C55.2534 110.48 55.1534 110.447 55.0734 110.38C54.9934 110.3 54.9534 110.207 54.9534 110.1C54.9668 109.593 55.0734 109.087 55.2734 108.58C55.4734 108.06 55.7668 107.593 56.1534 107.18C56.5534 106.767 57.0401 106.433 57.6134 106.18C58.2001 105.913 58.8801 105.78 59.6534 105.78C60.7068 105.78 61.5668 105.973 62.2334 106.36C62.9134 106.733 63.4134 107.233 63.7334 107.86C64.0534 108.487 64.2134 109.173 64.2134 109.92C64.2134 110.507 64.1134 111.047 63.9134 111.54C63.7134 112.02 63.4201 112.493 63.0334 112.96C62.6601 113.413 62.1934 113.88 61.6334 114.36L57.7934 118.26H64.0334C64.1801 118.26 64.2934 118.3 64.3734 118.38C64.4668 118.46 64.5134 118.573 64.5134 118.72V119.54C64.5134 119.673 64.4668 119.787 64.3734 119.88C64.2934 119.96 64.1801 120 64.0334 120H55.2134ZM71.0317 120C70.8984 120 70.7851 119.96 70.6917 119.88C70.6117 119.787 70.5717 119.673 70.5717 119.54V108.34L67.2517 110.9C67.1451 110.98 67.0317 111.013 66.9117 111C66.7917 110.987 66.6917 110.927 66.6117 110.82L66.0917 110.16C66.0117 110.04 65.9784 109.92 65.9917 109.8C66.0184 109.68 66.0851 109.58 66.1917 109.5L70.5517 106.14C70.6451 106.073 70.7317 106.033 70.8117 106.02C70.8917 106.007 70.9784 106 71.0717 106H72.0917C72.2251 106 72.3317 106.047 72.4117 106.14C72.4917 106.22 72.5317 106.327 72.5317 106.46V119.54C72.5317 119.673 72.4917 119.787 72.4117 119.88C72.3317 119.96 72.2251 120 72.0917 120H71.0317ZM74.9864 122.78C74.8531 122.78 74.7397 122.74 74.6464 122.66C74.5664 122.58 74.5264 122.467 74.5264 122.32V118.66C74.5264 118.527 74.5664 118.42 74.6464 118.34C74.7397 118.247 74.8531 118.2 74.9864 118.2H75.4064C75.7264 118.2 76.0064 118.053 76.2464 117.76C76.4864 117.467 76.6864 117.02 76.8464 116.42C77.0197 115.807 77.1464 115.033 77.2264 114.1C77.3064 113.167 77.3464 112.06 77.3464 110.78V106.46C77.3464 106.327 77.3864 106.22 77.4664 106.14C77.5597 106.047 77.6731 106 77.8064 106H85.6064C85.7531 106 85.8664 106.047 85.9464 106.14C86.0397 106.22 86.0864 106.333 86.0864 106.48V118.2H87.0664C87.2131 118.2 87.3264 118.247 87.4064 118.34C87.4997 118.42 87.5464 118.527 87.5464 118.66V122.32C87.5464 122.453 87.4997 122.56 87.4064 122.64C87.3264 122.733 87.2131 122.78 87.0664 122.78H86.0464C85.8997 122.78 85.7864 122.733 85.7064 122.64C85.6264 122.56 85.5864 122.453 85.5864 122.32V120H76.4864V122.32C76.4864 122.453 76.4397 122.56 76.3464 122.64C76.2664 122.733 76.1531 122.78 76.0064 122.78H74.9864ZM77.9664 118.2H84.1264V107.8H79.2664V111.02C79.2664 112.913 79.1531 114.44 78.9264 115.6C78.7131 116.76 78.3931 117.627 77.9664 118.2ZM94.1866 120.2C93.3732 120.2 92.6532 120.107 92.0266 119.92C91.3999 119.733 90.8732 119.48 90.4466 119.16C90.0199 118.827 89.6799 118.447 89.4266 118.02C89.1866 117.593 89.0466 117.133 89.0066 116.64C88.9932 116.52 89.0266 116.427 89.1066 116.36C89.1999 116.293 89.3066 116.26 89.4266 116.26H90.4266C90.5466 116.26 90.6532 116.287 90.7466 116.34C90.8532 116.393 90.9332 116.507 90.9866 116.68C91.1466 117.213 91.4932 117.653 92.0266 118C92.5599 118.333 93.2732 118.5 94.1666 118.5C94.7932 118.5 95.3599 118.407 95.8666 118.22C96.3732 118.02 96.7799 117.74 97.0866 117.38C97.3932 117.007 97.5466 116.56 97.5466 116.04C97.5466 115.253 97.2599 114.647 96.6866 114.22C96.1266 113.78 95.3599 113.56 94.3866 113.56H92.9466C92.8132 113.56 92.7066 113.52 92.6266 113.44C92.5466 113.347 92.5066 113.233 92.5066 113.1V112.4C92.5066 112.253 92.5466 112.14 92.6266 112.06C92.7066 111.967 92.8132 111.92 92.9466 111.92H94.3066C95.1332 111.92 95.7999 111.74 96.3066 111.38C96.8266 111.02 97.0866 110.447 97.0866 109.66C97.0866 109.22 96.9532 108.84 96.6866 108.52C96.4332 108.2 96.0932 107.953 95.6666 107.78C95.2399 107.593 94.7599 107.5 94.2266 107.5C93.4132 107.5 92.7332 107.647 92.1866 107.94C91.6399 108.233 91.2999 108.707 91.1666 109.36C91.1266 109.507 91.0666 109.613 90.9866 109.68C90.9066 109.733 90.8066 109.76 90.6866 109.76H89.6066C89.4866 109.76 89.3799 109.72 89.2866 109.64C89.2066 109.56 89.1732 109.46 89.1866 109.34C89.2266 108.833 89.3666 108.367 89.6066 107.94C89.8466 107.5 90.1732 107.12 90.5866 106.8C91.0132 106.48 91.5332 106.233 92.1466 106.06C92.7599 105.887 93.4599 105.8 94.2466 105.8C95.3266 105.8 96.2199 105.98 96.9266 106.34C97.6332 106.7 98.1666 107.167 98.5266 107.74C98.8866 108.3 99.0666 108.907 99.0666 109.56C99.0666 109.96 99.0132 110.353 98.9066 110.74C98.8132 111.127 98.6466 111.48 98.4066 111.8C98.1799 112.12 97.8666 112.4 97.4666 112.64C97.9466 112.867 98.3332 113.16 98.6266 113.52C98.9332 113.867 99.1599 114.26 99.3066 114.7C99.4666 115.127 99.5466 115.587 99.5466 116.08C99.5466 116.893 99.3266 117.607 98.8866 118.22C98.4599 118.833 97.8466 119.32 97.0466 119.68C96.2466 120.027 95.2932 120.2 94.1866 120.2ZM106.168 120C106.035 120 105.922 119.96 105.828 119.88C105.748 119.787 105.708 119.673 105.708 119.54V108.34L102.388 110.9C102.282 110.98 102.168 111.013 102.048 111C101.928 110.987 101.828 110.927 101.748 110.82L101.228 110.16C101.148 110.04 101.115 109.92 101.128 109.8C101.155 109.68 101.222 109.58 101.328 109.5L105.688 106.14C105.782 106.073 105.868 106.033 105.948 106.02C106.028 106.007 106.115 106 106.208 106H107.228C107.362 106 107.468 106.047 107.548 106.14C107.628 106.22 107.668 106.327 107.668 106.46V119.54C107.668 119.673 107.628 119.787 107.548 119.88C107.468 119.96 107.362 120 107.228 120H106.168ZM115.543 120.2C114.623 120.2 113.843 120.06 113.203 119.78C112.576 119.487 112.063 119.087 111.663 118.58C111.263 118.073 110.97 117.493 110.783 116.84C110.61 116.187 110.51 115.493 110.483 114.76C110.47 114.4 110.456 114.02 110.443 113.62C110.443 113.22 110.443 112.82 110.443 112.42C110.456 112.007 110.47 111.613 110.483 111.24C110.496 110.507 110.596 109.813 110.783 109.16C110.983 108.493 111.276 107.913 111.663 107.42C112.063 106.913 112.583 106.52 113.223 106.24C113.863 105.947 114.636 105.8 115.543 105.8C116.463 105.8 117.236 105.947 117.863 106.24C118.503 106.52 119.023 106.913 119.423 107.42C119.823 107.913 120.116 108.493 120.303 109.16C120.503 109.813 120.61 110.507 120.623 111.24C120.636 111.613 120.643 112.007 120.643 112.42C120.656 112.82 120.656 113.22 120.643 113.62C120.643 114.02 120.636 114.4 120.623 114.76C120.61 115.493 120.503 116.187 120.303 116.84C120.116 117.493 119.823 118.073 119.423 118.58C119.036 119.087 118.523 119.487 117.883 119.78C117.256 120.06 116.476 120.2 115.543 120.2ZM115.543 118.5C116.583 118.5 117.35 118.16 117.843 117.48C118.35 116.787 118.61 115.847 118.623 114.66C118.65 114.273 118.663 113.9 118.663 113.54C118.663 113.167 118.663 112.8 118.663 112.44C118.663 112.067 118.65 111.7 118.623 111.34C118.61 110.18 118.35 109.253 117.843 108.56C117.35 107.853 116.583 107.5 115.543 107.5C114.516 107.5 113.75 107.853 113.243 108.56C112.75 109.253 112.49 110.18 112.463 111.34C112.463 111.7 112.456 112.067 112.443 112.44C112.443 112.8 112.443 113.167 112.443 113.54C112.456 113.9 112.463 114.273 112.463 114.66C112.49 115.847 112.756 116.787 113.263 117.48C113.77 118.16 114.53 118.5 115.543 118.5Z" fill="black"/>
<path d="M43.44 148C43.3067 148 43.1933 147.96 43.1 147.88C43.02 147.787 42.98 147.673 42.98 147.54V146.9C42.98 146.78 43.0133 146.647 43.08 146.5C43.1467 146.353 43.28 146.193 43.48 146.02L47.72 141.78C48.4 141.207 48.9333 140.72 49.32 140.32C49.72 139.907 50 139.513 50.16 139.14C50.3333 138.767 50.42 138.38 50.42 137.98C50.42 137.22 50.2067 136.62 49.78 136.18C49.3533 135.727 48.72 135.5 47.88 135.5C47.3467 135.5 46.8867 135.613 46.5 135.84C46.1133 136.053 45.8067 136.353 45.58 136.74C45.3667 137.113 45.2267 137.54 45.16 138.02C45.1333 138.193 45.06 138.313 44.94 138.38C44.8333 138.447 44.7333 138.48 44.64 138.48H43.6C43.48 138.48 43.38 138.447 43.3 138.38C43.22 138.3 43.18 138.207 43.18 138.1C43.1933 137.593 43.3 137.087 43.5 136.58C43.7 136.06 43.9933 135.593 44.38 135.18C44.78 134.767 45.2667 134.433 45.84 134.18C46.4267 133.913 47.1067 133.78 47.88 133.78C48.9333 133.78 49.7933 133.973 50.46 134.36C51.14 134.733 51.64 135.233 51.96 135.86C52.28 136.487 52.44 137.173 52.44 137.92C52.44 138.507 52.34 139.047 52.14 139.54C51.94 140.02 51.6467 140.493 51.26 140.96C50.8867 141.413 50.42 141.88 49.86 142.36L46.02 146.26H52.26C52.4067 146.26 52.52 146.3 52.6 146.38C52.6933 146.46 52.74 146.573 52.74 146.72V147.54C52.74 147.673 52.6933 147.787 52.6 147.88C52.52 147.96 52.4067 148 52.26 148H43.44ZM60.0783 148.2C59.1583 148.2 58.3783 148.06 57.7383 147.78C57.1116 147.487 56.5983 147.087 56.1983 146.58C55.7983 146.073 55.5049 145.493 55.3183 144.84C55.1449 144.187 55.0449 143.493 55.0183 142.76C55.0049 142.4 54.9916 142.02 54.9783 141.62C54.9783 141.22 54.9783 140.82 54.9783 140.42C54.9916 140.007 55.0049 139.613 55.0183 139.24C55.0316 138.507 55.1316 137.813 55.3183 137.16C55.5183 136.493 55.8116 135.913 56.1983 135.42C56.5983 134.913 57.1183 134.52 57.7583 134.24C58.3983 133.947 59.1716 133.8 60.0783 133.8C60.9983 133.8 61.7716 133.947 62.3983 134.24C63.0383 134.52 63.5583 134.913 63.9583 135.42C64.3583 135.913 64.6516 136.493 64.8383 137.16C65.0383 137.813 65.1449 138.507 65.1583 139.24C65.1716 139.613 65.1783 140.007 65.1783 140.42C65.1916 140.82 65.1916 141.22 65.1783 141.62C65.1783 142.02 65.1716 142.4 65.1583 142.76C65.1449 143.493 65.0383 144.187 64.8383 144.84C64.6516 145.493 64.3583 146.073 63.9583 146.58C63.5716 147.087 63.0583 147.487 62.4183 147.78C61.7916 148.06 61.0116 148.2 60.0783 148.2ZM60.0783 146.5C61.1183 146.5 61.8849 146.16 62.3783 145.48C62.8849 144.787 63.1449 143.847 63.1583 142.66C63.1849 142.273 63.1983 141.9 63.1983 141.54C63.1983 141.167 63.1983 140.8 63.1983 140.44C63.1983 140.067 63.1849 139.7 63.1583 139.34C63.1449 138.18 62.8849 137.253 62.3783 136.56C61.8849 135.853 61.1183 135.5 60.0783 135.5C59.0516 135.5 58.2849 135.853 57.7783 136.56C57.2849 137.253 57.0249 138.18 56.9983 139.34C56.9983 139.7 56.9916 140.067 56.9783 140.44C56.9783 140.8 56.9783 141.167 56.9783 141.54C56.9916 141.9 56.9983 142.273 56.9983 142.66C57.0249 143.847 57.2916 144.787 57.7983 145.48C58.3049 146.16 59.0649 146.5 60.0783 146.5ZM67.8736 148C67.7403 148 67.6269 147.96 67.5336 147.88C67.4536 147.787 67.4136 147.673 67.4136 147.54V146.9C67.4136 146.78 67.4469 146.647 67.5136 146.5C67.5803 146.353 67.7136 146.193 67.9136 146.02L72.1536 141.78C72.8336 141.207 73.3669 140.72 73.7536 140.32C74.1536 139.907 74.4336 139.513 74.5936 139.14C74.7669 138.767 74.8536 138.38 74.8536 137.98C74.8536 137.22 74.6403 136.62 74.2136 136.18C73.7869 135.727 73.1536 135.5 72.3136 135.5C71.7803 135.5 71.3203 135.613 70.9336 135.84C70.5469 136.053 70.2403 136.353 70.0136 136.74C69.8003 137.113 69.6603 137.54 69.5936 138.02C69.5669 138.193 69.4936 138.313 69.3736 138.38C69.2669 138.447 69.1669 138.48 69.0736 138.48H68.0336C67.9136 138.48 67.8136 138.447 67.7336 138.38C67.6536 138.3 67.6136 138.207 67.6136 138.1C67.6269 137.593 67.7336 137.087 67.9336 136.58C68.1336 136.06 68.4269 135.593 68.8136 135.18C69.2136 134.767 69.7003 134.433 70.2736 134.18C70.8603 133.913 71.5403 133.78 72.3136 133.78C73.3669 133.78 74.2269 133.973 74.8936 134.36C75.5736 134.733 76.0736 135.233 76.3936 135.86C76.7136 136.487 76.8736 137.173 76.8736 137.92C76.8736 138.507 76.7736 139.047 76.5736 139.54C76.3736 140.02 76.0803 140.493 75.6936 140.96C75.3203 141.413 74.8536 141.88 74.2936 142.36L70.4536 146.26H76.6936C76.8403 146.26 76.9536 146.3 77.0336 146.38C77.1269 146.46 77.1736 146.573 77.1736 146.72V147.54C77.1736 147.673 77.1269 147.787 77.0336 147.88C76.9536 147.96 76.8403 148 76.6936 148H67.8736ZM83.6919 148C83.5585 148 83.4452 147.96 83.3519 147.88C83.2719 147.787 83.2319 147.673 83.2319 147.54V136.34L79.9119 138.9C79.8052 138.98 79.6919 139.013 79.5719 139C79.4519 138.987 79.3519 138.927 79.2719 138.82L78.7519 138.16C78.6719 138.04 78.6385 137.92 78.6519 137.8C78.6785 137.68 78.7452 137.58 78.8519 137.5L83.2119 134.14C83.3052 134.073 83.3919 134.033 83.4719 134.02C83.5519 134.007 83.6385 134 83.7319 134H84.7519C84.8852 134 84.9919 134.047 85.0719 134.14C85.1519 134.22 85.1919 134.327 85.1919 134.46V147.54C85.1919 147.673 85.1519 147.787 85.0719 147.88C84.9919 147.96 84.8852 148 84.7519 148H83.6919Z" fill="black"/>
<rect x="230.621" y="0.959839" width="242.379" height="140.183" fill="#7C1616"/>
<rect x="247.542" y="107.766" width="208.08" height="136.623" fill="#7C1616"/>
<rect x="270.865" y="39.6771" width="54.8782" height="52.9618" fill="#E1B000"/>
<rect x="377.42" y="39.6771" width="55.509" height="53.4031" fill="#E1B000"/>
<path d="M283.899 177.19L306.672 141.143H261.126L283.899 177.19Z" fill="black"/>
<path d="M329.173 177.19L351.946 141.143H306.401L329.173 177.19Z" fill="black"/>
<path d="M374.676 177.19L397.647 141.143H351.706L374.676 177.19Z" fill="black"/>
<path d="M419.265 177.19L442.038 141.143H396.492L419.265 177.19Z" fill="black"/>
<path d="M283.899 207.897L306.672 243.944H261.126L283.899 207.897Z" fill="black"/>
<path d="M329.173 207.897L351.946 243.944H306.401L329.173 207.897Z" fill="black"/>
<path d="M374.676 207.897L397.647 243.944H351.706L374.676 207.897Z" fill="black"/>
<path d="M419.265 207.897L442.038 243.944H396.492L419.265 207.897Z" fill="black"/>
<rect x="290.987" y="57.9232" width="16.9208" height="16.466" fill="#232323"/>
<rect x="396.628" y="57.9232" width="16.9208" height="16.466" fill="#232323"/>
</svg>
