<svg width="60" height="13" viewBox="0 0 60 13" fill="none" xmlns="http://www.w3.org/2000/svg">
<path fill-rule="evenodd" clip-rule="evenodd" d="M26.6029 6.34777C26.5701 6.39102 26.5315 6.42742 26.4892 6.45673C21.9027 9.93721 18.1323 11.9724 14.07 12.0854C10.0064 12.1984 5.7629 10.3859 0.229343 6.46592C0.177099 6.43231 0.130285 6.38833 0.0921571 6.33455C0.0291745 6.2457 -0.000705996 6.14334 3.21524e-05 6.04216C0.000499457 5.94295 0.0304219 5.84288 0.092159 5.75579C0.130283 5.70201 0.177089 5.65804 0.229328 5.62443C5.76289 1.70447 10.0064 -0.108061 14.07 0.00497116C18.1323 0.117965 21.9027 2.15313 26.4892 5.63361C26.5315 5.66292 26.57 5.69932 26.6029 5.74258C26.6717 5.83314 26.7048 5.9396 26.7047 6.04517C26.7048 6.15074 26.6717 6.2572 26.6029 6.34777Z" fill="#7C1616"/>
<path fill-rule="evenodd" clip-rule="evenodd" d="M13.161 0.957649C13.1769 0.935455 13.1949 0.914373 13.2148 0.894675C13.2557 0.854097 13.3023 0.821785 13.3524 0.798069C13.4895 0.732814 13.6472 0.734771 13.7806 0.797726C13.8309 0.821474 13.8778 0.853901 13.9189 0.894675C13.9388 0.914372 13.9568 0.935453 13.9728 0.957646C15.254 2.65246 16.0515 4.10506 16.0958 5.70105C16.14 7.29805 15.4279 8.92712 13.9822 10.9759C13.9643 11.0026 13.9437 11.0277 13.9205 11.0509C13.8792 11.0923 13.8318 11.1252 13.7808 11.1493C13.7125 11.1817 13.6394 11.1974 13.5669 11.1973C13.4943 11.1974 13.4212 11.1817 13.3529 11.1493C13.3019 11.1252 13.2545 11.0923 13.2132 11.0509C13.19 11.0277 13.1694 11.0026 13.1515 10.9759C11.7058 8.92712 10.9937 7.29805 11.038 5.70105C11.0822 4.10506 11.8798 2.65247 13.161 0.957649Z" fill="black"/>
<path fill-rule="evenodd" clip-rule="evenodd" d="M59.0124 6.55937C58.9796 6.60261 58.9411 6.639 58.8988 6.66831C54.3123 10.1488 50.5419 12.184 46.4796 12.297C42.4159 12.41 38.1724 10.5975 32.6388 6.6775C32.5866 6.64389 32.5398 6.59993 32.5017 6.54616C32.4387 6.45731 32.4088 6.35495 32.4096 6.25377C32.41 6.15456 32.44 6.05449 32.5017 5.9674C32.5398 5.91364 32.5866 5.86968 32.6388 5.83607C38.1724 1.91609 42.4159 0.103548 46.4796 0.21658C50.5419 0.329574 54.3123 2.36475 58.8988 5.84525C58.9411 5.87455 58.9796 5.91095 59.0124 5.95419C59.0812 6.04475 59.1144 6.15121 59.1143 6.25678C59.1144 6.36235 59.0812 6.46881 59.0124 6.55937Z" fill="#7C1616"/>
<path fill-rule="evenodd" clip-rule="evenodd" d="M45.5695 1.17455C45.5906 1.14487 45.6153 1.11715 45.6434 1.09203C45.6738 1.06468 45.7071 1.04161 45.7422 1.02292C45.8867 0.946158 46.0638 0.94352 46.2128 1.0234C46.2477 1.042 46.2806 1.06491 46.3108 1.09203C46.3389 1.11715 46.3636 1.14487 46.3847 1.17455C47.6649 2.86838 48.4617 4.32038 48.5059 5.91565C48.5502 7.512 47.8387 9.1404 46.3941 11.1881C46.3703 11.2241 46.3415 11.2574 46.3079 11.2869C46.2153 11.3687 46.0969 11.4118 45.9771 11.4119C45.8986 11.412 45.8195 11.3936 45.7466 11.3557C45.7109 11.3372 45.6772 11.3142 45.6463 11.2869C45.6127 11.2574 45.5839 11.2241 45.5601 11.1881C44.1155 9.1404 43.404 7.512 43.4482 5.91565C43.4924 4.32038 44.2893 2.86838 45.5695 1.17455Z" fill="black"/>
</svg>
