<svg width="56" height="56" viewBox="0 0 56 56" fill="none" xmlns="http://www.w3.org/2000/svg">
<rect x="0.199219" y="1" width="56" height="56" fill="#E1B000"/>
<ellipse cx="12.9064" cy="18.7248" rx="11.0497" ry="10.5321" fill="black"/>
<path d="M17.4967 25.6605H7.85296C0.930565 37.8146 -0.620586 44.6826 0.199189 57H25.9464C26.8767 44.563 24.9953 37.7021 17.4967 25.6605Z" fill="black"/>
<path d="M47.2974 1.00001L45.683 12.4381" stroke="black" stroke-width="1.5" stroke-linecap="round"/>
<path d="M45.6884 1.00376L47.4152 12.4327" stroke="black" stroke-width="1.5" stroke-linecap="round"/>
<path d="M47.3776 12.6629L45.4432 22.8991" stroke="black" stroke-width="1.5" stroke-linecap="round"/>
<path d="M45.6898 12.6439L47.2418 22.9165" stroke="black" stroke-width="1.5" stroke-linecap="round"/>
<path d="M48.9227 27.2018C48.9227 28.4408 48.57 29.5196 48.0513 30.2618C47.5302 31.0072 46.9067 31.3394 46.3316 31.3394C45.7564 31.3394 45.1329 31.0072 44.6119 30.2618C44.0931 29.5196 43.7404 28.4408 43.7404 27.2018C43.7404 25.9628 44.0931 24.8841 44.6119 24.1419C45.1329 23.3964 45.7564 23.0642 46.3316 23.0642C46.9067 23.0642 47.5302 23.3964 48.0513 24.1419C48.57 24.8841 48.9227 25.9628 48.9227 27.2018Z" stroke="black" stroke-width="2"/>
</svg>
