<svg width="67" height="65" viewBox="0 0 67 65" fill="none" xmlns="http://www.w3.org/2000/svg">
<rect x="1" y="1" width="65" height="63" rx="31.5" fill="black" stroke="#7C1616" stroke-width="2"/>
<path d="M33.7259 51.5438L29.3321 38.7291L28.9786 37.6982L27.889 37.7158L14.3437 37.9345L25.1734 29.7958L26.0446 29.1411L25.6912 28.1102L21.2974 15.2955L32.3843 23.0802L33.2762 23.7064L34.1475 23.0517L44.9772 14.913L40.9996 27.8629L40.6796 28.9047L41.5715 29.531L52.6585 37.3157L39.1132 37.5345L38.0235 37.5521L37.7035 38.5938L33.7259 51.5438Z" fill="black" stroke="#7C1616" stroke-width="3"/>
<path d="M33.6132 24L43.6132 31" stroke="#7C1616" stroke-width="3"/>
<path d="M25.4231 27.5257L29 37.5001" stroke="#7C1616" stroke-width="3"/>
<line x1="25.1" y1="29.8" x2="33.1" y2="23.8" stroke="#7C1616" stroke-width="3"/>
<line x1="40.4367" y1="29.431" x2="37.4367" y2="39.431" stroke="#7C1616" stroke-width="3"/>
<line x1="28" y1="37.5" x2="39" y2="37.5" stroke="#7C1616" stroke-width="3"/>
</svg>
