<svg width="303" height="150" viewBox="0 0 303 150" fill="none" xmlns="http://www.w3.org/2000/svg">
<rect width="112.535" height="97.899" fill="#E1B000"/>
<path d="M132.916 111.188L86.3951 89.2432L110.575 69.1052L132.916 111.188Z" fill="#E1B000"/>
<path d="M11.54 24C11.4373 24 11.358 23.972 11.302 23.916C11.246 23.8507 11.218 23.7713 11.218 23.678V14.536C11.218 14.4333 11.246 14.354 11.302 14.298C11.358 14.2327 11.4373 14.2 11.54 14.2H17.63C17.7327 14.2 17.812 14.2327 17.868 14.298C17.924 14.354 17.952 14.4333 17.952 14.536V15.096C17.952 15.1893 17.924 15.2687 17.868 15.334C17.812 15.39 17.7327 15.418 17.63 15.418H12.59V18.246H15.362C16.3513 18.246 17.1213 18.5027 17.672 19.016C18.2227 19.5293 18.498 20.22 18.498 21.088C18.498 21.4333 18.4327 21.7787 18.302 22.124C18.1713 22.4693 17.9753 22.782 17.714 23.062C17.462 23.342 17.14 23.5707 16.748 23.748C16.356 23.916 15.894 24 15.362 24H11.54ZM12.59 22.866H15.194C15.6047 22.866 15.95 22.7867 16.23 22.628C16.51 22.46 16.7247 22.236 16.874 21.956C17.0233 21.676 17.098 21.3727 17.098 21.046C17.098 20.5513 16.9393 20.15 16.622 19.842C16.314 19.5247 15.838 19.366 15.194 19.366H12.59V22.866ZM22.9594 24.14C22.2501 24.14 21.6574 24.0047 21.1814 23.734C20.7054 23.4633 20.3414 23.09 20.0894 22.614C19.8374 22.1287 19.6974 21.578 19.6694 20.962C19.6601 20.8033 19.6554 20.6027 19.6554 20.36C19.6554 20.108 19.6601 19.9073 19.6694 19.758C19.6974 19.1327 19.8374 18.582 20.0894 18.106C20.3507 17.63 20.7194 17.2567 21.1954 16.986C21.6714 16.7153 22.2594 16.58 22.9594 16.58C23.6594 16.58 24.2474 16.7153 24.7234 16.986C25.1994 17.2567 25.5634 17.63 25.8154 18.106C26.0767 18.582 26.2214 19.1327 26.2494 19.758C26.2587 19.9073 26.2634 20.108 26.2634 20.36C26.2634 20.6027 26.2587 20.8033 26.2494 20.962C26.2214 21.578 26.0814 22.1287 25.8294 22.614C25.5774 23.09 25.2134 23.4633 24.7374 23.734C24.2614 24.0047 23.6687 24.14 22.9594 24.14ZM22.9594 23.062C23.5381 23.062 24.0001 22.88 24.3454 22.516C24.6907 22.1427 24.8774 21.6013 24.9054 20.892C24.9147 20.752 24.9194 20.5747 24.9194 20.36C24.9194 20.1453 24.9147 19.968 24.9054 19.828C24.8774 19.1187 24.6907 18.582 24.3454 18.218C24.0001 17.8447 23.5381 17.658 22.9594 17.658C22.3807 17.658 21.9141 17.8447 21.5594 18.218C21.2141 18.582 21.0321 19.1187 21.0134 19.828C21.0041 19.968 20.9994 20.1453 20.9994 20.36C20.9994 20.5747 21.0041 20.752 21.0134 20.892C21.0321 21.6013 21.2141 22.1427 21.5594 22.516C21.9141 22.88 22.3807 23.062 22.9594 23.062ZM32.5525 24C32.4498 24 32.3705 23.972 32.3145 23.916C32.2585 23.8507 32.2305 23.7713 32.2305 23.678V21.396H30.6205V21.326C29.7431 21.326 29.0898 21.1113 28.6605 20.682C28.2405 20.2433 28.0305 19.688 28.0305 19.016C28.0305 18.232 28.2591 17.6533 28.7165 17.28C29.1831 16.9067 29.8831 16.72 30.8165 16.72H33.2245C33.3178 16.72 33.3925 16.7527 33.4485 16.818C33.5138 16.874 33.5465 16.9487 33.5465 17.042V23.678C33.5465 23.7713 33.5138 23.8507 33.4485 23.916C33.3925 23.972 33.3178 24 33.2245 24H32.5525ZM28.1145 24C28.0305 24 27.9605 23.972 27.9045 23.916C27.8485 23.86 27.8205 23.7947 27.8205 23.72C27.8205 23.6827 27.8251 23.6453 27.8345 23.608C27.8531 23.5613 27.8811 23.5147 27.9185 23.468L29.5845 21.004L30.9285 21.102L29.1505 23.79C29.1131 23.8367 29.0618 23.8833 28.9965 23.93C28.9311 23.9767 28.8611 24 28.7865 24H28.1145ZM30.6625 20.346H32.2445V17.77H30.7745C30.2518 17.77 29.8645 17.8633 29.6125 18.05C29.3698 18.2273 29.2485 18.5493 29.2485 19.016C29.2485 19.3987 29.3605 19.716 29.5845 19.968C29.8178 20.22 30.1771 20.346 30.6625 20.346ZM38.1657 24.14C37.615 24.14 37.1484 24.0747 36.7657 23.944C36.3924 23.804 36.089 23.6313 35.8557 23.426C35.6317 23.2113 35.4684 22.992 35.3657 22.768C35.263 22.5347 35.207 22.32 35.1977 22.124C35.1977 22.04 35.2257 21.9747 35.2817 21.928C35.3377 21.872 35.403 21.844 35.4777 21.844H36.1357C36.2197 21.844 36.2897 21.8673 36.3457 21.914C36.4017 21.9513 36.4437 22.0213 36.4717 22.124C36.5837 22.4787 36.7984 22.726 37.1157 22.866C37.433 23.006 37.8204 23.076 38.2777 23.076C38.5764 23.076 38.8517 23.0387 39.1037 22.964C39.3557 22.88 39.5517 22.7493 39.6917 22.572C39.841 22.3947 39.9157 22.1753 39.9157 21.914C39.9157 21.5313 39.8037 21.242 39.5797 21.046C39.365 20.85 39.029 20.752 38.5717 20.752H37.8017C37.7084 20.752 37.6337 20.724 37.5777 20.668C37.5217 20.612 37.4937 20.5373 37.4937 20.444V20.066C37.4937 19.982 37.5217 19.912 37.5777 19.856C37.6337 19.7907 37.7084 19.758 37.8017 19.758H38.4877C38.8704 19.758 39.1644 19.6833 39.3697 19.534C39.575 19.3847 39.6777 19.1467 39.6777 18.82C39.6777 18.624 39.631 18.4373 39.5377 18.26C39.4444 18.0827 39.2857 17.938 39.0617 17.826C38.847 17.7047 38.5484 17.644 38.1657 17.644C37.6244 17.644 37.2417 17.7373 37.0177 17.924C36.803 18.1013 36.649 18.3673 36.5557 18.722C36.5184 18.8247 36.4717 18.8947 36.4157 18.932C36.369 18.9693 36.299 18.988 36.2057 18.988H35.5757C35.4917 18.988 35.4217 18.9647 35.3657 18.918C35.3097 18.8713 35.2817 18.806 35.2817 18.722C35.291 18.442 35.3517 18.176 35.4637 17.924C35.585 17.672 35.7624 17.4433 35.9957 17.238C36.2384 17.0327 36.537 16.874 36.8917 16.762C37.2557 16.6407 37.6804 16.58 38.1657 16.58C38.8657 16.58 39.4164 16.6873 39.8177 16.902C40.2284 17.1167 40.5177 17.3827 40.6857 17.7C40.863 18.008 40.9517 18.316 40.9517 18.624C40.9517 18.988 40.891 19.2913 40.7697 19.534C40.6577 19.7767 40.4337 19.982 40.0977 20.15C40.5177 20.3087 40.807 20.5467 40.9657 20.864C41.1244 21.1813 41.2084 21.55 41.2177 21.97C41.227 22.4553 41.0964 22.8567 40.8257 23.174C40.5644 23.4913 40.205 23.734 39.7477 23.902C39.2904 24.0607 38.763 24.14 38.1657 24.14ZM43.1178 24C43.0244 24 42.9451 23.972 42.8798 23.916C42.8238 23.8507 42.7958 23.7713 42.7958 23.678V17.042C42.7958 16.9487 42.8238 16.874 42.8798 16.818C42.9451 16.7527 43.0244 16.72 43.1178 16.72H43.7898C43.8831 16.72 43.9578 16.7527 44.0138 16.818C44.0698 16.874 44.0978 16.9487 44.0978 17.042V19.73H47.9198V17.042C47.9198 16.9487 47.9478 16.874 48.0038 16.818C48.0691 16.7527 48.1484 16.72 48.2418 16.72H48.8998C48.9931 16.72 49.0678 16.7527 49.1238 16.818C49.1891 16.874 49.2218 16.9487 49.2218 17.042V23.678C49.2218 23.7713 49.1891 23.8507 49.1238 23.916C49.0678 23.972 48.9931 24 48.8998 24H48.2418C48.1484 24 48.0691 23.972 48.0038 23.916C47.9478 23.8507 47.9198 23.7713 47.9198 23.678V20.85H44.0978V23.678C44.0978 23.7713 44.0698 23.8507 44.0138 23.916C43.9578 23.972 43.8831 24 43.7898 24H43.1178ZM51.635 24C51.551 24 51.4763 23.972 51.411 23.916C51.355 23.8507 51.327 23.7807 51.327 23.706V17.042C51.327 16.9487 51.355 16.874 51.411 16.818C51.4763 16.7527 51.5557 16.72 51.649 16.72H52.321C52.4143 16.72 52.489 16.7527 52.545 16.818C52.601 16.874 52.629 16.9487 52.629 17.042V22.978L52.265 22.6L56.507 16.93C56.5537 16.874 56.605 16.8273 56.661 16.79C56.717 16.7433 56.787 16.72 56.871 16.72H57.515C57.5897 16.72 57.655 16.748 57.711 16.804C57.7763 16.86 57.809 16.9253 57.809 17V23.678C57.809 23.7713 57.7763 23.8507 57.711 23.916C57.655 23.972 57.5803 24 57.487 24H56.829C56.7263 24 56.647 23.972 56.591 23.916C56.535 23.8507 56.507 23.7713 56.507 23.678V18.092L56.899 18.078L52.629 23.79C52.5917 23.8367 52.545 23.8833 52.489 23.93C52.433 23.9767 52.3583 24 52.265 24H51.635ZM60.1803 24C60.0869 24 60.0076 23.972 59.9423 23.916C59.8863 23.8507 59.8583 23.7713 59.8583 23.678V17.042C59.8583 16.9487 59.8863 16.874 59.9423 16.818C60.0076 16.7527 60.0869 16.72 60.1803 16.72H60.8383C60.9316 16.72 61.0063 16.7527 61.0623 16.818C61.1276 16.874 61.1603 16.9487 61.1603 17.042V19.73H62.4343L64.3243 16.93C64.3709 16.8647 64.4223 16.8133 64.4783 16.776C64.5343 16.7387 64.6089 16.72 64.7023 16.72H65.4303C65.5143 16.72 65.5843 16.7387 65.6403 16.776C65.6963 16.8133 65.7243 16.8693 65.7243 16.944C65.7243 16.9627 65.7149 16.9907 65.6963 17.028C65.6869 17.056 65.6729 17.084 65.6543 17.112L63.5543 20.206L65.9343 23.594C65.9809 23.65 66.0043 23.7107 66.0043 23.776C66.0043 23.8507 65.9763 23.9067 65.9203 23.944C65.8736 23.9813 65.8083 24 65.7243 24H64.8703C64.7863 24 64.7163 23.9813 64.6603 23.944C64.6043 23.9067 64.5529 23.8553 64.5063 23.79L62.4483 20.864H61.1603V23.678C61.1603 23.7713 61.1276 23.8507 61.0623 23.916C61.0063 23.972 60.9316 24 60.8383 24H60.1803ZM70.3461 24.14C69.6368 24.14 69.0441 24.0047 68.5681 23.734C68.0921 23.4633 67.7281 23.09 67.4761 22.614C67.2241 22.1287 67.0841 21.578 67.0561 20.962C67.0468 20.8033 67.0421 20.6027 67.0421 20.36C67.0421 20.108 67.0468 19.9073 67.0561 19.758C67.0841 19.1327 67.2241 18.582 67.4761 18.106C67.7375 17.63 68.1061 17.2567 68.5821 16.986C69.0581 16.7153 69.6461 16.58 70.3461 16.58C71.0461 16.58 71.6341 16.7153 72.1101 16.986C72.5861 17.2567 72.9501 17.63 73.2021 18.106C73.4635 18.582 73.6081 19.1327 73.6361 19.758C73.6455 19.9073 73.6501 20.108 73.6501 20.36C73.6501 20.6027 73.6455 20.8033 73.6361 20.962C73.6081 21.578 73.4681 22.1287 73.2161 22.614C72.9641 23.09 72.6001 23.4633 72.1241 23.734C71.6481 24.0047 71.0555 24.14 70.3461 24.14ZM70.3461 23.062C70.9248 23.062 71.3868 22.88 71.7321 22.516C72.0775 22.1427 72.2641 21.6013 72.2921 20.892C72.3015 20.752 72.3061 20.5747 72.3061 20.36C72.3061 20.1453 72.3015 19.968 72.2921 19.828C72.2641 19.1187 72.0775 18.582 71.7321 18.218C71.3868 17.8447 70.9248 17.658 70.3461 17.658C69.7675 17.658 69.3008 17.8447 68.9461 18.218C68.6008 18.582 68.4188 19.1187 68.4001 19.828C68.3908 19.968 68.3861 20.1453 68.3861 20.36C68.3861 20.5747 68.3908 20.752 68.4001 20.892C68.4188 21.6013 68.6008 22.1427 68.9461 22.516C69.3008 22.88 69.7675 23.062 70.3461 23.062ZM75.7252 24C75.6319 24 75.5525 23.972 75.4872 23.916C75.4312 23.8507 75.4032 23.7713 75.4032 23.678V17.042C75.4032 16.9487 75.4312 16.874 75.4872 16.818C75.5525 16.7527 75.6319 16.72 75.7252 16.72H78.6372C79.5145 16.72 80.1725 16.8973 80.6112 17.252C81.0592 17.6067 81.2832 18.0827 81.2832 18.68C81.2832 19.1 81.2039 19.4173 81.0452 19.632C80.8865 19.8467 80.6625 20.0287 80.3732 20.178C80.7279 20.3273 80.9939 20.57 81.1712 20.906C81.3579 21.2327 81.4512 21.5733 81.4512 21.928C81.4512 22.6 81.2132 23.1133 80.7372 23.468C80.2612 23.8227 79.5985 24 78.7492 24H75.7252ZM76.6912 22.978H78.6372C79.0852 22.978 79.4445 22.894 79.7152 22.726C79.9952 22.5487 80.1352 22.2827 80.1352 21.928C80.1352 21.5547 80.0092 21.284 79.7572 21.116C79.5052 20.9387 79.1319 20.85 78.6372 20.85H76.6912V22.978ZM76.6912 19.814H78.5532C79.0012 19.814 79.3559 19.716 79.6172 19.52C79.8879 19.324 80.0232 19.0487 80.0232 18.694C80.0232 18.33 79.8879 18.0827 79.6172 17.952C79.3559 17.812 79.0012 17.742 78.5532 17.742H76.6912V19.814ZM85.2808 24.14C84.8142 24.14 84.3895 24.0467 84.0068 23.86C83.6242 23.6733 83.3162 23.4213 83.0828 23.104C82.8495 22.7867 82.7328 22.4273 82.7328 22.026C82.7328 21.382 82.9942 20.8687 83.5168 20.486C84.0395 20.1033 84.7208 19.8513 85.5608 19.73L87.6468 19.436V19.03C87.6468 18.582 87.5162 18.232 87.2548 17.98C87.0028 17.728 86.5875 17.602 86.0088 17.602C85.5888 17.602 85.2482 17.686 84.9868 17.854C84.7348 18.022 84.5575 18.2367 84.4548 18.498C84.3988 18.638 84.3008 18.708 84.1608 18.708H83.5308C83.4282 18.708 83.3488 18.68 83.2928 18.624C83.2462 18.5587 83.2228 18.484 83.2228 18.4C83.2228 18.26 83.2742 18.0873 83.3768 17.882C83.4888 17.6767 83.6568 17.476 83.8808 17.28C84.1048 17.084 84.3895 16.9207 84.7348 16.79C85.0895 16.65 85.5188 16.58 86.0228 16.58C86.5828 16.58 87.0542 16.6547 87.4368 16.804C87.8195 16.944 88.1182 17.1353 88.3328 17.378C88.5568 17.6207 88.7155 17.896 88.8088 18.204C88.9115 18.512 88.9628 18.8247 88.9628 19.142V23.678C88.9628 23.7713 88.9302 23.8507 88.8648 23.916C88.8088 23.972 88.7342 24 88.6408 24H87.9968C87.8942 24 87.8148 23.972 87.7588 23.916C87.7028 23.8507 87.6748 23.7713 87.6748 23.678V23.076C87.5535 23.244 87.3902 23.412 87.1848 23.58C86.9795 23.7387 86.7228 23.874 86.4148 23.986C86.1068 24.0887 85.7288 24.14 85.2808 24.14ZM85.5748 23.09C85.9575 23.09 86.3075 23.0107 86.6248 22.852C86.9422 22.684 87.1895 22.4273 87.3668 22.082C87.5535 21.7367 87.6468 21.3027 87.6468 20.78V20.388L86.0228 20.626C85.3602 20.7193 84.8608 20.878 84.5248 21.102C84.1888 21.3167 84.0208 21.592 84.0208 21.928C84.0208 22.1893 84.0955 22.4087 84.2448 22.586C84.4035 22.754 84.5995 22.88 84.8328 22.964C85.0755 23.048 85.3228 23.09 85.5748 23.09ZM10.56 41C10.4853 41 10.42 40.972 10.364 40.916C10.308 40.86 10.28 40.7947 10.28 40.72C10.28 40.6733 10.2847 40.622 10.294 40.566L13.766 31.508C13.8033 31.4147 13.8547 31.34 13.92 31.284C13.9853 31.228 14.0833 31.2 14.214 31.2H15.166C15.2873 31.2 15.3807 31.228 15.446 31.284C15.5207 31.34 15.5767 31.4147 15.614 31.508L19.072 40.566C19.0907 40.622 19.1 40.6733 19.1 40.72C19.1 40.7947 19.072 40.86 19.016 40.916C18.96 40.972 18.8947 41 18.82 41H18.106C17.994 41 17.91 40.972 17.854 40.916C17.8073 40.86 17.7747 40.8087 17.756 40.762L16.986 38.774H12.394L11.624 40.762C11.6147 40.8087 11.582 40.86 11.526 40.916C11.47 40.972 11.386 41 11.274 41H10.56ZM12.8 37.57H16.58L14.69 32.6L12.8 37.57ZM20.7369 41C20.6436 41 20.5642 40.972 20.4989 40.916C20.4429 40.8507 20.4149 40.7713 20.4149 40.678V34.042C20.4149 33.9487 20.4429 33.874 20.4989 33.818C20.5642 33.7527 20.6436 33.72 20.7369 33.72H21.4089C21.5022 33.72 21.5769 33.7527 21.6329 33.818C21.6889 33.874 21.7169 33.9487 21.7169 34.042V36.73H25.5389V34.042C25.5389 33.9487 25.5669 33.874 25.6229 33.818C25.6882 33.7527 25.7676 33.72 25.8609 33.72H26.5189C26.6122 33.72 26.6869 33.7527 26.7429 33.818C26.8082 33.874 26.8409 33.9487 26.8409 34.042V40.678C26.8409 40.7713 26.8082 40.8507 26.7429 40.916C26.6869 40.972 26.6122 41 26.5189 41H25.8609C25.7676 41 25.6882 40.972 25.6229 40.916C25.5669 40.8507 25.5389 40.7713 25.5389 40.678V37.85H21.7169V40.678C21.7169 40.7713 21.6889 40.8507 21.6329 40.916C21.5769 40.972 21.5022 41 21.4089 41H20.7369ZM30.9762 41.14C30.5095 41.14 30.0848 41.0467 29.7022 40.86C29.3195 40.6733 29.0115 40.4213 28.7782 40.104C28.5448 39.7867 28.4282 39.4273 28.4282 39.026C28.4282 38.382 28.6895 37.8687 29.2122 37.486C29.7348 37.1033 30.4162 36.8513 31.2562 36.73L33.3422 36.436V36.03C33.3422 35.582 33.2115 35.232 32.9502 34.98C32.6982 34.728 32.2828 34.602 31.7042 34.602C31.2842 34.602 30.9435 34.686 30.6822 34.854C30.4302 35.022 30.2528 35.2367 30.1502 35.498C30.0942 35.638 29.9962 35.708 29.8562 35.708H29.2262C29.1235 35.708 29.0442 35.68 28.9882 35.624C28.9415 35.5587 28.9182 35.484 28.9182 35.4C28.9182 35.26 28.9695 35.0873 29.0722 34.882C29.1842 34.6767 29.3522 34.476 29.5762 34.28C29.8002 34.084 30.0848 33.9207 30.4302 33.79C30.7848 33.65 31.2142 33.58 31.7182 33.58C32.2782 33.58 32.7495 33.6547 33.1322 33.804C33.5148 33.944 33.8135 34.1353 34.0282 34.378C34.2522 34.6207 34.4108 34.896 34.5042 35.204C34.6068 35.512 34.6582 35.8247 34.6582 36.142V40.678C34.6582 40.7713 34.6255 40.8507 34.5602 40.916C34.5042 40.972 34.4295 41 34.3362 41H33.6922C33.5895 41 33.5102 40.972 33.4542 40.916C33.3982 40.8507 33.3702 40.7713 33.3702 40.678V40.076C33.2488 40.244 33.0855 40.412 32.8802 40.58C32.6748 40.7387 32.4182 40.874 32.1102 40.986C31.8022 41.0887 31.4242 41.14 30.9762 41.14ZM31.2702 40.09C31.6528 40.09 32.0028 40.0107 32.3202 39.852C32.6375 39.684 32.8848 39.4273 33.0622 39.082C33.2488 38.7367 33.3422 38.3027 33.3422 37.78V37.388L31.7182 37.626C31.0555 37.7193 30.5562 37.878 30.2202 38.102C29.8842 38.3167 29.7162 38.592 29.7162 38.928C29.7162 39.1893 29.7908 39.4087 29.9402 39.586C30.0988 39.754 30.2948 39.88 30.5282 39.964C30.7708 40.048 31.0182 40.09 31.2702 40.09ZM39.6108 41.14C38.9481 41.14 38.3741 41.014 37.8888 40.762C37.4128 40.5007 37.0441 40.132 36.7828 39.656C36.5214 39.1707 36.3814 38.592 36.3628 37.92C36.3534 37.78 36.3488 37.5933 36.3488 37.36C36.3488 37.1267 36.3534 36.94 36.3628 36.8C36.3814 36.128 36.5214 35.554 36.7828 35.078C37.0441 34.5927 37.4128 34.224 37.8888 33.972C38.3741 33.7107 38.9481 33.58 39.6108 33.58C40.1521 33.58 40.6141 33.6547 40.9968 33.804C41.3888 33.9533 41.7108 34.1447 41.9628 34.378C42.2148 34.6113 42.4014 34.8633 42.5228 35.134C42.6534 35.4047 42.7234 35.6613 42.7328 35.904C42.7421 35.9973 42.7141 36.072 42.6488 36.128C42.5834 36.184 42.5041 36.212 42.4108 36.212H41.7388C41.6454 36.212 41.5754 36.1933 41.5288 36.156C41.4821 36.1093 41.4354 36.0347 41.3888 35.932C41.2208 35.4747 40.9921 35.1527 40.7028 34.966C40.4134 34.7793 40.0541 34.686 39.6248 34.686C39.0648 34.686 38.6074 34.8587 38.2528 35.204C37.9074 35.5493 37.7208 36.1047 37.6928 36.87C37.6834 37.206 37.6834 37.5327 37.6928 37.85C37.7208 38.6247 37.9074 39.1847 38.2528 39.53C38.6074 39.866 39.0648 40.034 39.6248 40.034C40.0541 40.034 40.4134 39.9407 40.7028 39.754C40.9921 39.5673 41.2208 39.2453 41.3888 38.788C41.4354 38.6853 41.4821 38.6153 41.5288 38.578C41.5754 38.5313 41.6454 38.508 41.7388 38.508H42.4108C42.5041 38.508 42.5834 38.536 42.6488 38.592C42.7141 38.648 42.7421 38.7227 42.7328 38.816C42.7234 39.012 42.6814 39.2127 42.6068 39.418C42.5321 39.6233 42.4108 39.8333 42.2428 40.048C42.0841 40.2533 41.8834 40.44 41.6408 40.608C41.3981 40.7667 41.1041 40.8973 40.7588 41C40.4228 41.0933 40.0401 41.14 39.6108 41.14ZM46.6214 41C46.528 41 46.4487 40.972 46.3834 40.916C46.3274 40.8507 46.2994 40.7713 46.2994 40.678V34.84H43.8634C43.77 34.84 43.6907 34.812 43.6254 34.756C43.5694 34.6907 43.5414 34.6113 43.5414 34.518V34.042C43.5414 33.9487 43.5694 33.874 43.6254 33.818C43.6907 33.7527 43.77 33.72 43.8634 33.72H50.0234C50.1167 33.72 50.1914 33.7527 50.2474 33.818C50.3127 33.874 50.3454 33.9487 50.3454 34.042V34.518C50.3454 34.6113 50.3127 34.6907 50.2474 34.756C50.1914 34.812 50.1167 34.84 50.0234 34.84H47.5874V40.678C47.5874 40.7713 47.5594 40.8507 47.5034 40.916C47.4474 40.972 47.368 41 47.2654 41H46.6214ZM53.5894 41.14C53.1228 41.14 52.6981 41.0467 52.3154 40.86C51.9328 40.6733 51.6248 40.4213 51.3914 40.104C51.1581 39.7867 51.0414 39.4273 51.0414 39.026C51.0414 38.382 51.3028 37.8687 51.8254 37.486C52.3481 37.1033 53.0294 36.8513 53.8694 36.73L55.9554 36.436V36.03C55.9554 35.582 55.8248 35.232 55.5634 34.98C55.3114 34.728 54.8961 34.602 54.3174 34.602C53.8974 34.602 53.5568 34.686 53.2954 34.854C53.0434 35.022 52.8661 35.2367 52.7634 35.498C52.7074 35.638 52.6094 35.708 52.4694 35.708H51.8394C51.7368 35.708 51.6574 35.68 51.6014 35.624C51.5548 35.5587 51.5314 35.484 51.5314 35.4C51.5314 35.26 51.5828 35.0873 51.6854 34.882C51.7974 34.6767 51.9654 34.476 52.1894 34.28C52.4134 34.084 52.6981 33.9207 53.0434 33.79C53.3981 33.65 53.8274 33.58 54.3314 33.58C54.8914 33.58 55.3628 33.6547 55.7454 33.804C56.1281 33.944 56.4268 34.1353 56.6414 34.378C56.8654 34.6207 57.0241 34.896 57.1174 35.204C57.2201 35.512 57.2714 35.8247 57.2714 36.142V40.678C57.2714 40.7713 57.2388 40.8507 57.1734 40.916C57.1174 40.972 57.0428 41 56.9494 41H56.3054C56.2028 41 56.1234 40.972 56.0674 40.916C56.0114 40.8507 55.9834 40.7713 55.9834 40.678V40.076C55.8621 40.244 55.6988 40.412 55.4934 40.58C55.2881 40.7387 55.0314 40.874 54.7234 40.986C54.4154 41.0887 54.0374 41.14 53.5894 41.14ZM53.8834 40.09C54.2661 40.09 54.6161 40.0107 54.9334 39.852C55.2508 39.684 55.4981 39.4273 55.6754 39.082C55.8621 38.7367 55.9554 38.3027 55.9554 37.78V37.388L54.3314 37.626C53.6688 37.7193 53.1694 37.878 52.8334 38.102C52.4974 38.3167 52.3294 38.592 52.3294 38.928C52.3294 39.1893 52.4041 39.4087 52.5534 39.586C52.7121 39.754 52.9081 39.88 53.1414 39.964C53.3841 40.048 53.6314 40.09 53.8834 40.09ZM62.224 41.14C61.5614 41.14 60.9874 41.014 60.502 40.762C60.026 40.5007 59.6574 40.132 59.396 39.656C59.1347 39.1707 58.9947 38.592 58.976 37.92C58.9667 37.78 58.962 37.5933 58.962 37.36C58.962 37.1267 58.9667 36.94 58.976 36.8C58.9947 36.128 59.1347 35.554 59.396 35.078C59.6574 34.5927 60.026 34.224 60.502 33.972C60.9874 33.7107 61.5614 33.58 62.224 33.58C62.7654 33.58 63.2274 33.6547 63.61 33.804C64.002 33.9533 64.324 34.1447 64.576 34.378C64.828 34.6113 65.0147 34.8633 65.136 35.134C65.2667 35.4047 65.3367 35.6613 65.346 35.904C65.3554 35.9973 65.3274 36.072 65.262 36.128C65.1967 36.184 65.1174 36.212 65.024 36.212H64.352C64.2587 36.212 64.1887 36.1933 64.142 36.156C64.0954 36.1093 64.0487 36.0347 64.002 35.932C63.834 35.4747 63.6054 35.1527 63.316 34.966C63.0267 34.7793 62.6674 34.686 62.238 34.686C61.678 34.686 61.2207 34.8587 60.866 35.204C60.5207 35.5493 60.334 36.1047 60.306 36.87C60.2967 37.206 60.2967 37.5327 60.306 37.85C60.334 38.6247 60.5207 39.1847 60.866 39.53C61.2207 39.866 61.678 40.034 62.238 40.034C62.6674 40.034 63.0267 39.9407 63.316 39.754C63.6054 39.5673 63.834 39.2453 64.002 38.788C64.0487 38.6853 64.0954 38.6153 64.142 38.578C64.1887 38.5313 64.2587 38.508 64.352 38.508H65.024C65.1174 38.508 65.1967 38.536 65.262 38.592C65.3274 38.648 65.3554 38.7227 65.346 38.816C65.3367 39.012 65.2947 39.2127 65.22 39.418C65.1454 39.6233 65.024 39.8333 64.856 40.048C64.6974 40.2533 64.4967 40.44 64.254 40.608C64.0114 40.7667 63.7174 40.8973 63.372 41C63.036 41.0933 62.6534 41.14 62.224 41.14ZM67.3167 41C67.2327 41 67.158 40.972 67.0927 40.916C67.0367 40.8507 67.0087 40.7807 67.0087 40.706V34.042C67.0087 33.9487 67.0367 33.874 67.0927 33.818C67.158 33.7527 67.2373 33.72 67.3307 33.72H68.0027C68.096 33.72 68.1707 33.7527 68.2267 33.818C68.2827 33.874 68.3107 33.9487 68.3107 34.042V39.978L67.9467 39.6L72.1887 33.93C72.2353 33.874 72.2867 33.8273 72.3427 33.79C72.3987 33.7433 72.4687 33.72 72.5527 33.72H73.1967C73.2713 33.72 73.3367 33.748 73.3927 33.804C73.458 33.86 73.4907 33.9253 73.4907 34V40.678C73.4907 40.7713 73.458 40.8507 73.3927 40.916C73.3367 40.972 73.262 41 73.1687 41H72.5107C72.408 41 72.3287 40.972 72.2727 40.916C72.2167 40.8507 72.1887 40.7713 72.1887 40.678V35.092L72.5807 35.078L68.3107 40.79C68.2733 40.8367 68.2267 40.8833 68.1707 40.93C68.1147 40.9767 68.04 41 67.9467 41H67.3167ZM80.0759 41C79.9732 41 79.8939 40.972 79.8379 40.916C79.7819 40.8507 79.7539 40.7713 79.7539 40.678V38.396H78.1439V38.326C77.2666 38.326 76.6132 38.1113 76.1839 37.682C75.7639 37.2433 75.5539 36.688 75.5539 36.016C75.5539 35.232 75.7826 34.6533 76.2399 34.28C76.7066 33.9067 77.4066 33.72 78.3399 33.72H80.7479C80.8412 33.72 80.9159 33.7527 80.9719 33.818C81.0372 33.874 81.0699 33.9487 81.0699 34.042V40.678C81.0699 40.7713 81.0372 40.8507 80.9719 40.916C80.9159 40.972 80.8412 41 80.7479 41H80.0759ZM75.6379 41C75.5539 41 75.4839 40.972 75.4279 40.916C75.3719 40.86 75.3439 40.7947 75.3439 40.72C75.3439 40.6827 75.3486 40.6453 75.3579 40.608C75.3766 40.5613 75.4046 40.5147 75.4419 40.468L77.1079 38.004L78.4519 38.102L76.6739 40.79C76.6366 40.8367 76.5852 40.8833 76.5199 40.93C76.4546 40.9767 76.3846 41 76.3099 41H75.6379ZM78.1859 37.346H79.7679V34.77H78.2979C77.7752 34.77 77.3879 34.8633 77.1359 35.05C76.8932 35.2273 76.7719 35.5493 76.7719 36.016C76.7719 36.3987 76.8839 36.716 77.1079 36.968C77.3412 37.22 77.7006 37.346 78.1859 37.346Z" fill="black"/>
<path d="M11.54 61C11.4373 61 11.358 60.972 11.302 60.916C11.246 60.8507 11.218 60.7713 11.218 60.678V51.536C11.218 51.4333 11.246 51.354 11.302 51.298C11.358 51.2327 11.4373 51.2 11.54 51.2H17.63C17.7327 51.2 17.812 51.2327 17.868 51.298C17.924 51.354 17.952 51.4333 17.952 51.536V52.096C17.952 52.1893 17.924 52.2687 17.868 52.334C17.812 52.39 17.7327 52.418 17.63 52.418H12.59V55.246H15.362C16.3513 55.246 17.1213 55.5027 17.672 56.016C18.2227 56.5293 18.498 57.22 18.498 58.088C18.498 58.4333 18.4327 58.7787 18.302 59.124C18.1713 59.4693 17.9753 59.782 17.714 60.062C17.462 60.342 17.14 60.5707 16.748 60.748C16.356 60.916 15.894 61 15.362 61H11.54ZM12.59 59.866H15.194C15.6047 59.866 15.95 59.7867 16.23 59.628C16.51 59.46 16.7247 59.236 16.874 58.956C17.0233 58.676 17.098 58.3727 17.098 58.046C17.098 57.5513 16.9393 57.15 16.622 56.842C16.314 56.5247 15.838 56.366 15.194 56.366H12.59V59.866ZM19.9494 61C19.8561 61 19.7767 60.972 19.7114 60.916C19.6554 60.8507 19.6274 60.7713 19.6274 60.678V60.23C19.6274 60.146 19.6507 60.0527 19.6974 59.95C19.7441 59.8473 19.8374 59.7353 19.9774 59.614L22.9454 56.646C23.4214 56.2447 23.7947 55.904 24.0654 55.624C24.3454 55.3347 24.5414 55.0593 24.6534 54.798C24.7747 54.5367 24.8354 54.266 24.8354 53.986C24.8354 53.454 24.6861 53.034 24.3874 52.726C24.0887 52.4087 23.6454 52.25 23.0574 52.25C22.6841 52.25 22.3621 52.3293 22.0914 52.488C21.8207 52.6373 21.6061 52.8473 21.4474 53.118C21.2981 53.3793 21.2001 53.678 21.1534 54.014C21.1347 54.1353 21.0834 54.2193 20.9994 54.266C20.9247 54.3127 20.8547 54.336 20.7894 54.336H20.0614C19.9774 54.336 19.9074 54.3127 19.8514 54.266C19.7954 54.21 19.7674 54.1447 19.7674 54.07C19.7767 53.7153 19.8514 53.3607 19.9914 53.006C20.1314 52.642 20.3367 52.3153 20.6074 52.026C20.8874 51.7367 21.2281 51.5033 21.6294 51.326C22.0401 51.1393 22.5161 51.046 23.0574 51.046C23.7947 51.046 24.3967 51.1813 24.8634 51.452C25.3394 51.7133 25.6894 52.0633 25.9134 52.502C26.1374 52.9407 26.2494 53.4213 26.2494 53.944C26.2494 54.3547 26.1794 54.7327 26.0394 55.078C25.8994 55.414 25.6941 55.7453 25.4234 56.072C25.1621 56.3893 24.8354 56.716 24.4434 57.052L21.7554 59.782H26.1234C26.2261 59.782 26.3054 59.81 26.3614 59.866C26.4267 59.922 26.4594 60.0013 26.4594 60.104V60.678C26.4594 60.7713 26.4267 60.8507 26.3614 60.916C26.3054 60.972 26.2261 61 26.1234 61H19.9494ZM31.0222 61C30.9289 61 30.8495 60.972 30.7842 60.916C30.7282 60.8507 30.7002 60.7713 30.7002 60.678V52.838L28.3762 54.63C28.3015 54.686 28.2222 54.7093 28.1382 54.7C28.0542 54.6907 27.9842 54.6487 27.9282 54.574L27.5642 54.112C27.5082 54.028 27.4849 53.944 27.4942 53.86C27.5129 53.776 27.5595 53.706 27.6342 53.65L30.6862 51.298C30.7515 51.2513 30.8122 51.2233 30.8682 51.214C30.9242 51.2047 30.9849 51.2 31.0502 51.2H31.7642C31.8575 51.2 31.9322 51.2327 31.9882 51.298C32.0442 51.354 32.0722 51.4287 32.0722 51.522V60.678C32.0722 60.7713 32.0442 60.8507 31.9882 60.916C31.9322 60.972 31.8575 61 31.7642 61H31.0222ZM33.7905 62.946C33.6972 62.946 33.6178 62.918 33.5525 62.862C33.4965 62.806 33.4685 62.7267 33.4685 62.624V60.062C33.4685 59.9687 33.4965 59.894 33.5525 59.838C33.6178 59.7727 33.6972 59.74 33.7905 59.74H34.0845C34.3085 59.74 34.5045 59.6373 34.6725 59.432C34.8405 59.2267 34.9805 58.914 35.0925 58.494C35.2138 58.0647 35.3025 57.5233 35.3585 56.87C35.4145 56.2167 35.4425 55.442 35.4425 54.546V51.522C35.4425 51.4287 35.4705 51.354 35.5265 51.298C35.5918 51.2327 35.6712 51.2 35.7645 51.2H41.2245C41.3272 51.2 41.4065 51.2327 41.4625 51.298C41.5278 51.354 41.5605 51.4333 41.5605 51.536V59.74H42.2465C42.3492 59.74 42.4285 59.7727 42.4845 59.838C42.5498 59.894 42.5825 59.9687 42.5825 60.062V62.624C42.5825 62.7173 42.5498 62.792 42.4845 62.848C42.4285 62.9133 42.3492 62.946 42.2465 62.946H41.5325C41.4298 62.946 41.3505 62.9133 41.2945 62.848C41.2385 62.792 41.2105 62.7173 41.2105 62.624V61H34.8405V62.624C34.8405 62.7173 34.8078 62.792 34.7425 62.848C34.6865 62.9133 34.6072 62.946 34.5045 62.946H33.7905ZM35.8765 59.74H40.1885V52.46H36.7865V54.714C36.7865 56.0393 36.7072 57.108 36.5485 57.92C36.3992 58.732 36.1752 59.3387 35.8765 59.74ZM47.2306 61.14C46.6613 61.14 46.1573 61.0747 45.7186 60.944C45.2799 60.8133 44.9113 60.636 44.6126 60.412C44.3139 60.1787 44.0759 59.9127 43.8986 59.614C43.7306 59.3153 43.6326 58.9933 43.6046 58.648C43.5953 58.564 43.6186 58.4987 43.6746 58.452C43.7399 58.4053 43.8146 58.382 43.8986 58.382H44.5986C44.6826 58.382 44.7573 58.4007 44.8226 58.438C44.8973 58.4753 44.9533 58.5547 44.9906 58.676C45.1026 59.0493 45.3453 59.3573 45.7186 59.6C46.0919 59.8333 46.5913 59.95 47.2166 59.95C47.6553 59.95 48.0519 59.8847 48.4066 59.754C48.7613 59.614 49.0459 59.418 49.2606 59.166C49.4753 58.9047 49.5826 58.592 49.5826 58.228C49.5826 57.6773 49.3819 57.2527 48.9806 56.954C48.5886 56.646 48.0519 56.492 47.3706 56.492H46.3626C46.2693 56.492 46.1946 56.464 46.1386 56.408C46.0826 56.3427 46.0546 56.2633 46.0546 56.17V55.68C46.0546 55.5773 46.0826 55.498 46.1386 55.442C46.1946 55.3767 46.2693 55.344 46.3626 55.344H47.3146C47.8933 55.344 48.3599 55.218 48.7146 54.966C49.0786 54.714 49.2606 54.3127 49.2606 53.762C49.2606 53.454 49.1673 53.188 48.9806 52.964C48.8033 52.74 48.5653 52.5673 48.2666 52.446C47.9679 52.3153 47.6319 52.25 47.2586 52.25C46.6893 52.25 46.2133 52.3527 45.8306 52.558C45.4479 52.7633 45.2099 53.0947 45.1166 53.552C45.0886 53.6547 45.0466 53.7293 44.9906 53.776C44.9346 53.8133 44.8646 53.832 44.7806 53.832H44.0246C43.9406 53.832 43.8659 53.804 43.8006 53.748C43.7446 53.692 43.7213 53.622 43.7306 53.538C43.7586 53.1833 43.8566 52.8567 44.0246 52.558C44.1926 52.25 44.4213 51.984 44.7106 51.76C45.0093 51.536 45.3733 51.3633 45.8026 51.242C46.2319 51.1207 46.7219 51.06 47.2726 51.06C48.0286 51.06 48.6539 51.186 49.1486 51.438C49.6433 51.69 50.0166 52.0167 50.2686 52.418C50.5206 52.81 50.6466 53.2347 50.6466 53.692C50.6466 53.972 50.6093 54.2473 50.5346 54.518C50.4693 54.7887 50.3526 55.036 50.1846 55.26C50.0259 55.484 49.8066 55.68 49.5266 55.848C49.8626 56.0067 50.1333 56.212 50.3386 56.464C50.5533 56.7067 50.7119 56.982 50.8146 57.29C50.9266 57.5887 50.9826 57.9107 50.9826 58.256C50.9826 58.8253 50.8286 59.3247 50.5206 59.754C50.2219 60.1833 49.7926 60.524 49.2326 60.776C48.6726 61.0187 48.0053 61.14 47.2306 61.14ZM55.6179 61C55.5246 61 55.4452 60.972 55.3799 60.916C55.3239 60.8507 55.2959 60.7713 55.2959 60.678V52.838L52.9719 54.63C52.8972 54.686 52.8179 54.7093 52.7339 54.7C52.6499 54.6907 52.5799 54.6487 52.5239 54.574L52.1599 54.112C52.1039 54.028 52.0806 53.944 52.0899 53.86C52.1086 53.776 52.1552 53.706 52.2299 53.65L55.2819 51.298C55.3472 51.2513 55.4079 51.2233 55.4639 51.214C55.5199 51.2047 55.5806 51.2 55.6459 51.2H56.3599C56.4532 51.2 56.5279 51.2327 56.5839 51.298C56.6399 51.354 56.6679 51.4287 56.6679 51.522V60.678C56.6679 60.7713 56.6399 60.8507 56.5839 60.916C56.5279 60.972 56.4532 61 56.3599 61H55.6179ZM62.1802 61.14C61.5362 61.14 60.9902 61.042 60.5422 60.846C60.1035 60.6407 59.7442 60.3607 59.4642 60.006C59.1842 59.6513 58.9789 59.2453 58.8482 58.788C58.7269 58.3307 58.6569 57.8453 58.6382 57.332C58.6289 57.08 58.6195 56.814 58.6102 56.534C58.6102 56.254 58.6102 55.974 58.6102 55.694C58.6195 55.4047 58.6289 55.1293 58.6382 54.868C58.6475 54.3547 58.7175 53.8693 58.8482 53.412C58.9882 52.9453 59.1935 52.5393 59.4642 52.194C59.7442 51.8393 60.1082 51.564 60.5562 51.368C61.0042 51.1627 61.5455 51.06 62.1802 51.06C62.8242 51.06 63.3655 51.1627 63.8042 51.368C64.2522 51.564 64.6162 51.8393 64.8962 52.194C65.1762 52.5393 65.3815 52.9453 65.5122 53.412C65.6522 53.8693 65.7269 54.3547 65.7362 54.868C65.7455 55.1293 65.7502 55.4047 65.7502 55.694C65.7595 55.974 65.7595 56.254 65.7502 56.534C65.7502 56.814 65.7455 57.08 65.7362 57.332C65.7269 57.8453 65.6522 58.3307 65.5122 58.788C65.3815 59.2453 65.1762 59.6513 64.8962 60.006C64.6255 60.3607 64.2662 60.6407 63.8182 60.846C63.3795 61.042 62.8335 61.14 62.1802 61.14ZM62.1802 59.95C62.9082 59.95 63.4449 59.712 63.7902 59.236C64.1449 58.7507 64.3269 58.0927 64.3362 57.262C64.3549 56.9913 64.3642 56.73 64.3642 56.478C64.3642 56.2167 64.3642 55.96 64.3642 55.708C64.3642 55.4467 64.3549 55.19 64.3362 54.938C64.3269 54.126 64.1449 53.4773 63.7902 52.992C63.4449 52.4973 62.9082 52.25 62.1802 52.25C61.4615 52.25 60.9249 52.4973 60.5702 52.992C60.2249 53.4773 60.0429 54.126 60.0242 54.938C60.0242 55.19 60.0195 55.4467 60.0102 55.708C60.0102 55.96 60.0102 56.2167 60.0102 56.478C60.0195 56.73 60.0242 56.9913 60.0242 57.262C60.0429 58.0927 60.2295 58.7507 60.5842 59.236C60.9389 59.712 61.4709 59.95 62.1802 59.95Z" fill="black"/>
<path d="M13.008 79C12.9147 79 12.8353 78.972 12.77 78.916C12.714 78.8507 12.686 78.7713 12.686 78.678V78.23C12.686 78.146 12.7093 78.0527 12.756 77.95C12.8027 77.8473 12.896 77.7353 13.036 77.614L16.004 74.646C16.48 74.2447 16.8533 73.904 17.124 73.624C17.404 73.3347 17.6 73.0593 17.712 72.798C17.8333 72.5367 17.894 72.266 17.894 71.986C17.894 71.454 17.7447 71.034 17.446 70.726C17.1473 70.4087 16.704 70.25 16.116 70.25C15.7427 70.25 15.4207 70.3293 15.15 70.488C14.8793 70.6373 14.6647 70.8473 14.506 71.118C14.3567 71.3793 14.2587 71.678 14.212 72.014C14.1933 72.1353 14.142 72.2193 14.058 72.266C13.9833 72.3127 13.9133 72.336 13.848 72.336H13.12C13.036 72.336 12.966 72.3127 12.91 72.266C12.854 72.21 12.826 72.1447 12.826 72.07C12.8353 71.7153 12.91 71.3607 13.05 71.006C13.19 70.642 13.3953 70.3153 13.666 70.026C13.946 69.7367 14.2867 69.5033 14.688 69.326C15.0987 69.1393 15.5747 69.046 16.116 69.046C16.8533 69.046 17.4553 69.1813 17.922 69.452C18.398 69.7133 18.748 70.0633 18.972 70.502C19.196 70.9407 19.308 71.4213 19.308 71.944C19.308 72.3547 19.238 72.7327 19.098 73.078C18.958 73.414 18.7527 73.7453 18.482 74.072C18.2207 74.3893 17.894 74.716 17.502 75.052L14.814 77.782H19.182C19.2847 77.782 19.364 77.81 19.42 77.866C19.4853 77.922 19.518 78.0013 19.518 78.104V78.678C19.518 78.7713 19.4853 78.8507 19.42 78.916C19.364 78.972 19.2847 79 19.182 79H13.008ZM24.6548 79.14C24.0108 79.14 23.4648 79.042 23.0168 78.846C22.5781 78.6407 22.2188 78.3607 21.9388 78.006C21.6588 77.6513 21.4535 77.2453 21.3228 76.788C21.2015 76.3307 21.1315 75.8453 21.1128 75.332C21.1035 75.08 21.0941 74.814 21.0848 74.534C21.0848 74.254 21.0848 73.974 21.0848 73.694C21.0941 73.4047 21.1035 73.1293 21.1128 72.868C21.1221 72.3547 21.1921 71.8693 21.3228 71.412C21.4628 70.9453 21.6681 70.5393 21.9388 70.194C22.2188 69.8393 22.5828 69.564 23.0308 69.368C23.4788 69.1627 24.0201 69.06 24.6548 69.06C25.2988 69.06 25.8401 69.1627 26.2788 69.368C26.7268 69.564 27.0908 69.8393 27.3708 70.194C27.6508 70.5393 27.8561 70.9453 27.9868 71.412C28.1268 71.8693 28.2015 72.3547 28.2108 72.868C28.2201 73.1293 28.2248 73.4047 28.2248 73.694C28.2341 73.974 28.2341 74.254 28.2248 74.534C28.2248 74.814 28.2201 75.08 28.2108 75.332C28.2015 75.8453 28.1268 76.3307 27.9868 76.788C27.8561 77.2453 27.6508 77.6513 27.3708 78.006C27.1001 78.3607 26.7408 78.6407 26.2928 78.846C25.8541 79.042 25.3081 79.14 24.6548 79.14ZM24.6548 77.95C25.3828 77.95 25.9195 77.712 26.2648 77.236C26.6195 76.7507 26.8015 76.0927 26.8108 75.262C26.8295 74.9913 26.8388 74.73 26.8388 74.478C26.8388 74.2167 26.8388 73.96 26.8388 73.708C26.8388 73.4467 26.8295 73.19 26.8108 72.938C26.8015 72.126 26.6195 71.4773 26.2648 70.992C25.9195 70.4973 25.3828 70.25 24.6548 70.25C23.9361 70.25 23.3995 70.4973 23.0448 70.992C22.6995 71.4773 22.5175 72.126 22.4988 72.938C22.4988 73.19 22.4941 73.4467 22.4848 73.708C22.4848 73.96 22.4848 74.2167 22.4848 74.478C22.4941 74.73 22.4988 74.9913 22.4988 75.262C22.5175 76.0927 22.7041 76.7507 23.0588 77.236C23.4135 77.712 23.9455 77.95 24.6548 77.95ZM30.1115 79C30.0182 79 29.9388 78.972 29.8735 78.916C29.8175 78.8507 29.7895 78.7713 29.7895 78.678V78.23C29.7895 78.146 29.8128 78.0527 29.8595 77.95C29.9062 77.8473 29.9995 77.7353 30.1395 77.614L33.1075 74.646C33.5835 74.2447 33.9568 73.904 34.2275 73.624C34.5075 73.3347 34.7035 73.0593 34.8155 72.798C34.9368 72.5367 34.9975 72.266 34.9975 71.986C34.9975 71.454 34.8482 71.034 34.5495 70.726C34.2508 70.4087 33.8075 70.25 33.2195 70.25C32.8462 70.25 32.5242 70.3293 32.2535 70.488C31.9828 70.6373 31.7682 70.8473 31.6095 71.118C31.4602 71.3793 31.3622 71.678 31.3155 72.014C31.2968 72.1353 31.2455 72.2193 31.1615 72.266C31.0868 72.3127 31.0168 72.336 30.9515 72.336H30.2235C30.1395 72.336 30.0695 72.3127 30.0135 72.266C29.9575 72.21 29.9295 72.1447 29.9295 72.07C29.9388 71.7153 30.0135 71.3607 30.1535 71.006C30.2935 70.642 30.4988 70.3153 30.7695 70.026C31.0495 69.7367 31.3902 69.5033 31.7915 69.326C32.2022 69.1393 32.6782 69.046 33.2195 69.046C33.9568 69.046 34.5588 69.1813 35.0255 69.452C35.5015 69.7133 35.8515 70.0633 36.0755 70.502C36.2995 70.9407 36.4115 71.4213 36.4115 71.944C36.4115 72.3547 36.3415 72.7327 36.2015 73.078C36.0615 73.414 35.8562 73.7453 35.5855 74.072C35.3242 74.3893 34.9975 74.716 34.6055 75.052L31.9175 77.782H36.2855C36.3882 77.782 36.4675 77.81 36.5235 77.866C36.5888 77.922 36.6215 78.0013 36.6215 78.104V78.678C36.6215 78.7713 36.5888 78.8507 36.5235 78.916C36.4675 78.972 36.3882 79 36.2855 79H30.1115ZM41.1843 79C41.091 79 41.0116 78.972 40.9463 78.916C40.8903 78.8507 40.8623 78.7713 40.8623 78.678V70.838L38.5383 72.63C38.4636 72.686 38.3843 72.7093 38.3003 72.7C38.2163 72.6907 38.1463 72.6487 38.0903 72.574L37.7263 72.112C37.6703 72.028 37.647 71.944 37.6563 71.86C37.675 71.776 37.7216 71.706 37.7963 71.65L40.8483 69.298C40.9136 69.2513 40.9743 69.2233 41.0303 69.214C41.0863 69.2047 41.147 69.2 41.2123 69.2H41.9263C42.0196 69.2 42.0943 69.2327 42.1503 69.298C42.2063 69.354 42.2343 69.4287 42.2343 69.522V78.678C42.2343 78.7713 42.2063 78.8507 42.1503 78.916C42.0943 78.972 42.0196 79 41.9263 79H41.1843Z" fill="black"/>
<rect x="155.672" width="147.328" height="82.4607" fill="#7C1616"/>
<rect x="165.957" y="62.8272" width="126.48" height="80.3665" fill="#7C1616"/>
<rect x="180.134" y="22.7748" width="33.3573" height="31.154" fill="#E1B000"/>
<rect x="244.903" y="22.7748" width="33.7407" height="31.4136" fill="#E1B000"/>
<path d="M188.056 103.665L201.898 82.4607H174.214L188.056 103.665Z" fill="black"/>
<path d="M215.576 103.665L229.418 82.4607H201.734L215.576 103.665Z" fill="black"/>
<path d="M243.235 103.665L257.197 82.4607H229.272L243.235 103.665Z" fill="black"/>
<path d="M270.337 103.665L284.18 82.4607H256.495L270.337 103.665Z" fill="black"/>
<path d="M188.056 121.728L201.898 142.932H174.214L188.056 121.728Z" fill="black"/>
<path d="M215.576 121.728L229.418 142.932H201.734L215.576 121.728Z" fill="black"/>
<path d="M243.235 121.728L257.197 142.932H229.272L243.235 121.728Z" fill="black"/>
<path d="M270.337 121.728L284.18 142.932H256.495L270.337 121.728Z" fill="black"/>
<rect x="192.365" y="33.5079" width="10.2852" height="9.68586" fill="#232323"/>
<rect x="256.578" y="33.5079" width="10.2852" height="9.68586" fill="#232323"/>
</svg>
