<svg width="61" height="58" viewBox="0 0 61 58" fill="none" xmlns="http://www.w3.org/2000/svg">
<path d="M5.40051 16.5931C1.57041 7.06438 13.061 -9.27037 20.5299 6.9672C27.9989 23.2048 42.0749 -2.65866 51.5547 6.9672C61.0346 16.5931 63.9072 30.9832 55.385 33.3168C46.8627 35.6504 46.767 42.3593 39.298 48.582C31.8291 54.8048 33.2654 49.0682 20.5299 54.8048C7.7944 60.5415 -3.02599 48.582 1.66604 41.387C6.35806 34.1919 9.23061 26.1217 5.40051 16.5931Z" fill="#7C1616"/>
<ellipse rx="18.4535" ry="15.5567" transform="matrix(0.899581 0.436754 -0.430957 0.902372 34.1818 35.8906)" fill="#C40202"/>
<path d="M34.6191 16.8438L32.7141 26.9139L42.8026 33.582L49.578 26.731L42.9697 26.695L44.214 18.5762L38.5246 23.7569L34.6191 16.8438Z" fill="#097500"/>
</svg>
